<svg width="643" height="174" viewBox="0 0 643 174" fill="none" xmlns="http://www.w3.org/2000/svg">
<path d="M192.83 44.2721C192.83 14.3892 161.134 0 123.479 0C83.1979 0 46.2392 17.8457 32.6737 45.5168C28.9299 52.889 26.9844 61.0443 26.995 69.3135C26.8237 76.464 28.8024 83.5006 32.6737 89.5143C38.486 98.0965 48.8666 103.49 64.0939 103.49C82.7837 103.49 97.5954 93.2491 97.5954 75.4026C97.5954 75.4026 97.87 70.4254 92.0577 70.4254C87.3513 70.4254 86.1036 73.7438 86.2432 75.4026C86.9387 89.377 78.6303 100.584 63.8178 100.584C47.2116 100.584 40.2844 86.472 40.2844 71.3925C40.2844 40.5381 63.5402 20.0589 87.7647 11.2059C99.0852 6.93098 111.107 4.81653 123.208 4.9757C150.616 4.9757 173.041 15.4929 173.041 43.7199C173.041 67.2368 153.247 87.2987 129.573 89.0994L130.542 85.919C135.388 68.6225 141.34 49.6695 151.028 35.6944C151.585 34.8593 152.551 33.4796 153.659 32.0976L152.277 30.4358C150.205 31.6925 148.216 33.0783 146.32 34.5855C100.921 70.0068 99.5416 169.622 39.0442 169.622C36.9607 169.622 34.8809 169.483 32.8163 169.206C20.2217 167.132 13.5728 158.69 13.5728 146.935C13.5728 144.583 14.4049 141.399 14.4049 139.602C14.5007 136.261 11.8695 133.475 8.52771 133.377C8.5013 133.377 8.47641 133.377 8.45152 133.377H7.76128C2.3639 133.377 0.148373 137.661 0.00957262 143.753C-0.403812 161.324 12.6042 171.559 32.6798 173.5C34.8923 173.637 37.1078 173.774 39.4614 173.774C86.6618 173.774 115.593 138.078 127.914 94.7713C134.155 94.0404 140.317 92.7451 146.323 90.9008C168.199 84.8071 192.83 70.1486 192.83 44.2721ZM642.446 54.6482H625.829L622.095 63.3662L615.586 78.0315H607.84L605.476 83.0133H613.512L603.816 104.459C596.905 119.539 586.105 134.345 579.874 134.345C578.492 134.345 577.657 133.788 577.657 132.409C577.657 131.031 578.069 129.776 579.596 125.904C581.535 121.335 584.723 114.697 587.075 109.855C590.53 102.799 596.07 91.8686 596.07 86.4727C596.07 81.0761 592.614 76.7861 585.826 76.7861C578.214 76.7861 571.292 81.3567 564.917 87.9905L569.074 78.03H553.437L540.697 107.085C535.581 117.324 525.193 134.342 518.684 134.342C517.302 134.342 516.744 133.51 516.744 132.128C516.879 130.885 517.206 129.671 517.714 128.529C518.271 127.285 525.884 109.437 525.884 109.437L539.727 77.7539H522.842L509.411 108.605C505.265 118.154 494.744 134.342 487.955 134.342C486.773 134.458 485.719 133.593 485.604 132.408C485.604 132.408 485.604 132.408 485.604 132.407V131.85C485.604 130.191 486.852 127.146 487.823 124.931L494.878 109.437L509.411 77.7539H492.671L489.338 84.9482C486.853 89.7889 482.695 95.4616 476.053 95.4616C472.866 95.4616 471.35 94.2199 470.659 92.973C469.689 82.3185 462.902 76.6458 452.937 76.6458C439.094 76.6458 429.265 84.8086 422.754 94.7721C418.49 101.64 415.14 109.034 412.793 116.767C406.838 126.594 400.613 134.206 395.628 134.206C394.381 134.206 393.549 133.51 393.549 131.851C393.549 130.191 395.212 126.458 395.765 125.068L406.701 101.826C409.746 94.6348 411.828 89.9299 411.828 85.225C411.828 80.2433 408.373 76.6435 402.688 76.6435C394.797 76.6435 386.213 81.2126 379.431 88.6815C379.661 87.4956 379.753 86.2879 379.707 85.0817C379.707 79.5463 376.941 76.6398 371.262 76.6398C364.067 76.6398 356.593 80.9335 349.81 88.6777L354.241 77.8807H339.011L326.14 106.944C320.05 120.643 310.222 134.206 304.683 134.206C303.439 134.206 302.608 133.509 302.608 131.851C302.608 129.223 305.515 122.72 306.621 120.091L323.649 81.491C324.894 78.5867 316.725 76.7854 306.344 76.7854C295.686 76.7854 284.749 82.0454 276.723 88.8233C271.048 93.5244 266.894 95.8795 264.814 95.8795C264.136 96.0251 263.467 95.5921 263.321 94.9147C263.301 94.8234 263.292 94.7291 263.294 94.6363C263.294 92.2835 268.969 85.6392 268.969 80.5216C268.969 78.1703 267.725 76.6466 264.537 76.6466C258.45 76.6466 251.248 82.4588 245.989 88.5442L250.419 77.889H235.472L222.6 106.946C216.508 120.645 206.403 134.898 200.866 134.898C199.619 134.898 198.792 134.207 198.792 132.544C198.792 129.916 201.561 123.555 203.082 120.23L220.109 81.4925C221.355 78.5883 213.187 76.7869 202.803 76.7869C187.438 76.7869 172.487 87.1637 164.598 97.8174C155.878 109.298 149.928 121.475 149.787 131.439C149.652 139.463 153.799 144.442 162.107 144.442C171.382 144.442 178.859 137.111 183.148 131.575C182.894 132.67 182.707 133.78 182.59 134.898C182.59 140.428 184.806 144.442 191.587 144.442C197.539 144.442 205.43 139.461 211.798 131.575L206.67 143.336H222.864L238.784 107.223C244.056 95.4661 250.009 89.38 251.664 89.38C252.045 89.3076 252.413 89.5565 252.487 89.9367C252.495 89.9812 252.499 90.0265 252.499 90.071C252.499 91.3172 250.009 94.6416 250.009 97.6809C250.009 100.72 251.665 103.074 256.101 103.074C259.556 103.074 263.434 101.414 266.896 99.1979C258.729 110.27 253.187 121.892 253.187 131.44C253.05 139.466 257.199 144.445 265.508 144.445C274.227 144.445 282.394 136.143 286.824 130.609C286.657 131.894 286.565 133.187 286.547 134.483C286.547 139.881 289.594 144.445 295.822 144.445C302.741 144.445 308.28 140.154 315.201 131.717L310.075 143.339H326.683L341.908 108.886C348.553 93.9431 357.548 85.9153 361.979 85.9153C363.085 85.8014 364.077 86.6055 364.193 87.7136C364.193 87.7151 364.193 87.7182 364.193 87.7197V88.1323C364.011 89.8122 363.542 91.4499 362.81 92.9737L340.959 143.475H357.985L373.49 108.33C380.131 93.2521 387.47 85.9153 393.007 85.9153C394.667 85.9153 395.362 86.7511 395.362 88.5449C395.214 90.4723 394.696 92.3521 393.839 94.0864L378.887 125.905C377.51 128.968 376.667 132.241 376.394 135.588C376.394 140.432 379.023 144.728 386.502 144.728C396.198 144.728 403.528 137.395 411.831 126.465V128.816C412.525 137.532 417.369 145.142 430.241 145.142C445.467 145.142 457.793 134.626 465.261 117.888C468.086 112.004 469.913 105.689 470.666 99.2032C472.333 100.049 474.197 100.433 476.061 100.319C478.576 100.347 481.055 99.7267 483.261 98.5167L480.631 104.188C477.577 110.554 474.255 117.61 471.636 123.564C469.978 127.084 468.99 130.882 468.728 134.766C468.728 140.713 472.049 145.006 478.826 145.006C485.603 145.006 494.887 138.641 501.531 129.648H501.675C501.23 131.507 500.995 133.409 500.972 135.319C500.972 140.302 502.499 145.007 509.42 145.007C517.456 145.007 523.676 139.194 529.772 131.86L524.645 143.484H541.397L554.828 113.045C562.441 95.8893 570.054 85.514 577.107 85.514C578.32 85.471 579.356 86.3799 579.471 87.5884V87.998C579.471 90.906 575.314 98.792 571.58 106.677C568.113 113.873 565.483 119.404 563.688 123.698C562.023 127.315 561.038 131.206 560.78 135.178C560.78 140.434 563.688 144.447 570.198 144.447C579.883 144.447 589.714 135.039 594.964 127.981C593.779 131.365 593.128 134.91 593.035 138.494C593.035 148.184 598.841 153.025 607.011 153.025C612.439 152.984 617.716 151.243 622.102 148.047C628.467 143.616 633.594 136.977 637.885 130.89L634.977 128.12C630.964 133.793 626.529 139.191 621.958 142.511C619.549 144.547 616.528 145.717 613.375 145.832C609.921 145.832 607.702 144.031 607.702 139.608C607.702 135.186 609.775 129.229 612.964 121.202C613.097 121.068 617.667 110.827 621.958 101.006C625.558 92.6991 629.158 84.6781 629.849 83.0178H640.784L643 78.0361H632.201L642.446 54.6482ZM170.272 134.482C167.92 134.482 166.259 133.652 166.259 130.608C166.396 122.443 173.177 107.917 181.626 96.2929C187.577 88.2688 195.328 82.3215 203.634 82.3215L193.112 105.838C185.222 123.551 176.639 134.482 170.272 134.482ZM273.815 134.482C271.463 134.482 269.802 133.652 269.666 130.608C269.803 122.443 276.585 107.917 285.031 96.2929C290.98 88.2688 298.734 82.3215 307.039 82.3215L296.516 105.838C288.49 123.968 280.323 134.482 273.812 134.482H273.815ZM457.641 88.689C457.228 97.6794 449.337 119.398 440.064 132.409C436.331 137.666 433.142 139.186 430.379 139.186C426.499 139.186 425.385 136.002 425.942 131.299C426.767 123.137 433.555 104.044 442.973 90.9C447.263 84.9505 450.173 82.4588 453.494 82.4588C456.816 82.4588 457.785 85.2273 457.641 88.689Z" fill="#E8EBFF"/>
</svg>
