<svg width="534" height="127" viewBox="0 0 534 127" fill="none" xmlns="http://www.w3.org/2000/svg">
<path fill-rule="evenodd" clip-rule="evenodd" d="M1.56598 93.7641C1.48198 85.3401 0.755979 75.6021 0.0179787 68.1561C-0.0618599 67.3706 0.163279 66.5843 0.646834 65.9601C1.13039 65.3358 1.83537 64.9212 2.61598 64.8021L2.73598 64.7841C3.49527 64.6669 4.27109 64.8349 4.91374 65.256C5.55638 65.677 6.0203 66.3212 6.21598 67.0641C7.12135 70.8142 8.62459 74.394 10.668 77.6661C12.516 80.5701 18.984 90.5961 32.568 90.5961C42.468 90.5961 49.728 83.6002 49.728 74.7562C49.728 66.5842 43.128 63.2841 30.198 58.4001C26.376 56.8161 22.416 55.3702 18.588 53.6542C13.308 51.1402 0.899979 45.3381 0.899979 29.2341C0.899979 11.3001 15.288 0.740148 33.63 0.740148C38.082 0.740148 44.418 1.36415 50.766 4.28015C52.17 4.92215 53.826 4.42415 54.654 3.12815L55.704 1.47215C55.9751 1.04246 56.348 0.686255 56.7897 0.43508C57.2313 0.183905 57.7281 0.0455091 58.236 0.0321479C59.0342 0.0129851 59.8093 0.301162 60.4011 0.83714C60.9929 1.37312 61.3562 2.11594 61.416 2.91215C61.999 10.4242 62.8355 17.9145 63.924 25.3701C64.0924 25.7812 64.1707 26.2235 64.1537 26.6674C64.1368 27.1113 64.0248 27.5464 63.8255 27.9433C63.6261 28.3403 63.344 28.6899 62.9981 28.9686C62.6522 29.2473 62.2506 29.4486 61.8203 29.559C61.3901 29.6694 60.9411 29.6863 60.5038 29.6085C60.0665 29.5307 59.6509 29.3601 59.2851 29.1081C58.9192 28.8562 58.6117 28.5287 58.3831 28.1478C58.1545 27.7669 58.0102 27.3415 57.96 26.9001C56.304 22.5261 55.368 20.4801 53.55 17.7561C49.2 11.8221 43.392 7.73615 36.138 7.73615C26.766 7.73615 21.228 15.3801 21.228 21.5841C21.228 28.7061 27.558 31.7421 30.33 33.0621C36.006 35.8341 41.94 37.6821 47.88 40.0581C57.378 43.7541 70.44 49.4301 70.44 66.8481C70.44 83.9961 56.718 98.3781 34.95 98.3781C24.132 98.3781 17.082 94.9582 12.99 92.3602C12.6429 92.1418 12.2557 91.995 11.8511 91.9281C11.4466 91.8612 11.0327 91.8757 10.6338 91.9706C10.2349 92.0656 9.85894 92.2392 9.52792 92.4812C9.1969 92.7232 8.91747 93.0288 8.70598 93.3801L7.53598 95.3121C7.27931 95.7314 6.92686 96.0838 6.50756 96.3403C6.08827 96.5969 5.6141 96.7504 5.12398 96.7882L4.90198 96.8062C4.47982 96.8408 4.05504 96.7881 3.65415 96.6513C3.25325 96.5146 2.88482 96.2967 2.57183 96.0113C2.25884 95.7259 2.00799 95.3791 1.83494 94.9924C1.66189 94.6058 1.57033 94.1877 1.56598 93.7641ZM73.338 93.0082C73.338 91.6942 74.28 90.5782 75.564 90.3622C77.556 90.0322 79.968 89.1742 80.334 86.6422C80.73 83.6002 80.73 75.6862 80.73 73.7062C80.73 69.0862 80.598 61.5681 80.598 56.9481C80.598 50.3241 78.378 48.5061 75.258 47.6241C74.702 47.4614 74.2141 47.1224 73.8678 46.6581C73.5214 46.1937 73.3355 45.6294 73.338 45.0501V44.7381C73.338 43.4241 74.286 42.3201 75.576 42.0981C82.146 40.9461 92.082 38.1381 97.296 36.3381C97.6319 36.2218 97.9875 36.1735 98.3423 36.1961C98.697 36.2187 99.0437 36.3117 99.3621 36.4698C99.6805 36.6279 99.9642 36.8478 100.197 37.1168C100.429 37.3857 100.606 37.6982 100.716 38.0361C100.824 38.3841 100.926 38.7141 101.016 39.0561C101.129 39.4517 101.332 39.8159 101.609 40.1205C101.885 40.4251 102.228 40.662 102.611 40.8128C102.994 40.9636 103.406 41.0243 103.817 40.9902C104.227 40.9561 104.623 40.8281 104.976 40.6161C109.956 37.7241 114.678 35.5761 121.632 35.5761C126.648 35.5761 131.664 36.8961 135.756 39.7941C142.182 44.2581 143.256 51.0741 143.796 58.2921V69.8781C143.796 71.8581 143.538 82.1481 143.538 84.3981C143.538 87.7341 144.444 89.7681 148.806 90.5781C149.41 90.7023 149.952 91.0333 150.339 91.514C150.726 91.9948 150.932 92.5953 150.924 93.2121C150.925 93.5787 150.85 93.9415 150.705 94.2781C150.56 94.6146 150.347 94.9177 150.08 95.1686C149.812 95.4195 149.497 95.6129 149.152 95.7366C148.807 95.8604 148.44 95.912 148.074 95.8882C144.336 95.6362 138.69 95.4742 129.414 95.4742C124.182 95.4742 121.296 95.6181 118.614 95.8521C118.243 95.8855 117.869 95.8412 117.517 95.7222C117.164 95.6032 116.84 95.412 116.565 95.1608C116.29 94.9097 116.07 94.604 115.92 94.2634C115.77 93.9227 115.692 93.5545 115.692 93.1821V92.6181C115.692 91.4121 116.502 90.3442 117.672 90.0382C121.53 88.9942 122.01 87.1521 121.896 79.1181L121.632 58.5321C121.5 52.2021 121.236 44.9421 112.656 44.9421C109.086 44.9421 106.32 46.2501 103.656 48.2601C103.305 48.5178 103.021 48.8563 102.829 49.247C102.637 49.6376 102.542 50.0689 102.552 50.5041C102.762 57.1161 102.762 75.8841 102.762 81.7521C102.762 87.8061 103.812 89.4801 107.034 90.3321C108.186 90.6321 108.966 91.7121 108.966 92.9061V93.2541C108.967 93.6209 108.892 93.984 108.747 94.3209C108.602 94.6577 108.389 94.9612 108.122 95.2126C107.855 95.4639 107.539 95.6578 107.194 95.7823C106.849 95.9068 106.482 95.9591 106.116 95.9361C101.634 95.6541 95.874 95.4742 85.08 95.4742C80.928 95.4742 78.516 95.6061 76.266 95.8221C75.894 95.8573 75.5187 95.8142 75.1644 95.6956C74.81 95.577 74.4845 95.3854 74.2086 95.1334C73.9328 94.8813 73.7128 94.5742 73.5629 94.2319C73.4129 93.8897 73.3363 93.5198 73.338 93.1461V93.0082ZM188.274 71.0361C188.272 70.6274 188.176 70.2246 187.994 69.8585C187.813 69.4924 187.55 69.1727 187.225 68.9238C186.901 68.6749 186.524 68.5033 186.124 68.4223C185.723 68.3412 185.309 68.3528 184.914 68.4562C180.462 69.5842 174.552 72.1821 174.552 79.1181C174.552 82.6821 176.4 86.6361 181.416 86.6361C183.972 86.6361 185.496 85.8621 187.098 84.8061C187.461 84.5614 187.759 84.2307 187.964 83.8435C188.169 83.4562 188.276 83.0244 188.274 82.5861V71.0361ZM218.766 86.3001C219.057 86.5339 219.297 86.8259 219.469 87.1575C219.64 87.4891 219.741 87.853 219.764 88.2258C219.788 88.5986 219.733 88.9721 219.603 89.3224C219.473 89.6727 219.272 89.9921 219.012 90.2601C212.67 96.6801 206.382 97.9881 202.92 97.9881C199.359 97.9453 195.9 96.7916 193.026 94.6881C192.11 93.9519 191.287 93.1055 190.578 92.1681C190.173 91.6318 189.579 91.2698 188.917 91.1561C188.255 91.0424 187.574 91.1855 187.014 91.5561C183.384 93.9141 175.89 98.1141 167.562 98.1141C155.418 98.1141 152.52 89.9362 152.52 85.0582C152.52 69.9802 175.722 63.6741 186.228 61.7901C186.84 61.678 187.394 61.3549 187.793 60.877C188.192 60.3992 188.411 59.7967 188.412 59.1742C188.424 55.0942 188.43 50.2941 187.878 48.6381C186.294 44.0181 181.02 44.0181 180.36 44.0181C176.004 44.0181 173.628 46.6581 172.836 49.5621C172.44 51.2781 172.44 53.1261 172.044 54.8421C170.988 59.3241 167.292 61.0401 163.998 61.0401C159.906 61.0401 156.078 58.4001 156.078 53.5221C156.078 43.7541 174.156 35.8341 190.518 35.8341C201.864 35.8341 210.174 39.5302 210.174 50.4862L209.916 79.9101C209.784 82.1541 209.646 87.2901 213.078 87.2901C213.93 87.2901 214.734 86.8462 215.49 86.2582C215.962 85.8982 216.541 85.7068 217.135 85.7144C217.729 85.722 218.303 85.9282 218.766 86.3001Z" fill="#E8EBFF"/>
<path fill-rule="evenodd" clip-rule="evenodd" d="M255.9 89.0121C265.662 89.0121 269.22 75.4221 269.22 66.4521C269.22 56.9481 265.26 44.2821 255.504 44.2821C246.66 44.2821 246.66 53.3901 246.66 56.1561C246.66 59.1921 246.798 73.9701 246.798 77.2701C246.798 81.4941 246.798 89.0121 255.9 89.0121ZM224.892 57.7401C225.132 47.6601 223.692 45.2841 219.192 44.0421C218.661 43.8843 218.195 43.5577 217.866 43.1116C217.537 42.6656 217.362 42.1244 217.368 41.5701V40.9101C217.365 40.2898 217.592 39.6904 218.003 39.2265C218.415 38.7627 218.984 38.467 219.6 38.3961C228.51 37.4421 237.936 35.0121 242.574 33.7521C242.905 33.6605 243.252 33.6382 243.592 33.6865C243.933 33.7347 244.259 33.8526 244.552 34.0328C244.845 34.2129 245.097 34.4515 245.294 34.7335C245.49 35.0156 245.626 35.3351 245.694 35.6721C245.832 36.2841 245.97 37.0341 246.138 37.9761C246.207 38.3839 246.375 38.7685 246.628 39.0961C246.88 39.4237 247.21 39.6843 247.586 39.8549C247.963 40.0256 248.376 40.101 248.789 40.0747C249.202 40.0485 249.602 39.9212 249.954 39.7041C255.132 36.3861 260.238 34.6521 266.718 34.6521C282.684 34.6521 292.578 48.3741 292.578 62.8881C292.578 82.8081 278.46 96.6681 261.972 96.6681C256.914 96.6681 253.23 95.3781 250.68 94.0041C250.295 93.793 249.862 93.6855 249.424 93.6922C248.985 93.6988 248.555 93.8194 248.177 94.042C247.799 94.2647 247.485 94.5817 247.267 94.9622C247.048 95.3426 246.932 95.7733 246.93 96.2121V111.44C246.93 116.546 247.242 120.482 252.702 121.406C253.275 121.52 253.789 121.83 254.157 122.284C254.524 122.738 254.72 123.306 254.712 123.89C254.712 124.228 254.645 124.562 254.514 124.873C254.383 125.184 254.191 125.466 253.949 125.702C253.708 125.938 253.421 126.123 253.107 126.247C252.793 126.371 252.457 126.43 252.12 126.422C245.597 126.241 239.073 126.131 232.548 126.092C227.586 126.092 224.376 126.182 220.152 126.362C219.81 126.378 219.469 126.325 219.149 126.206C218.829 126.087 218.536 125.904 218.288 125.668C218.04 125.433 217.842 125.15 217.707 124.836C217.572 124.522 217.501 124.184 217.5 123.842V123.512C217.5 122.288 218.352 121.19 219.564 120.986C224.472 120.146 224.892 117.446 224.892 113.684C225.024 111.176 225.024 103.394 225.024 100.49L224.892 57.7401ZM361.632 95.8761C356.274 95.4801 352.77 95.4801 338.736 95.4801C331.056 95.4801 327.99 95.5701 323.496 95.8881C322.73 95.9247 321.98 95.6681 321.397 95.1706C320.814 94.673 320.442 93.972 320.358 93.2102C320.274 92.4484 320.484 91.6832 320.944 91.0705C321.404 90.4577 322.081 90.0435 322.836 89.9121C330.234 88.8741 330.552 86.2041 330.552 69.4821V27.5241C330.42 17.4981 330.294 14.4621 329.364 12.6141C328.368 10.2741 326.802 9.72211 322.77 9.05011C322.069 8.93365 321.433 8.57248 320.974 8.03085C320.514 7.48921 320.262 6.80223 320.262 6.09211C320.262 4.24411 321.654 2.89411 323.346 2.94211C330.762 3.14011 338.184 3.24211 345.594 3.24211C353.034 3.24211 357.804 3.08011 361.896 2.94211C362.689 2.87687 363.476 3.12942 364.083 3.64421C364.69 4.159 365.068 4.89385 365.133 5.68711C365.198 6.48038 364.946 7.26707 364.431 7.87412C363.916 8.48118 363.181 8.85887 362.388 8.92411C354.57 9.90211 354.57 12.2721 354.57 29.7681L354.702 70.6701C354.966 84.5301 355.098 85.3221 356.682 87.4281C357.81 88.7601 359.58 89.4621 362.292 89.8281C363.005 89.9319 363.658 90.2893 364.129 90.8347C364.601 91.3801 364.86 92.0771 364.86 92.7981C364.868 93.2175 364.789 93.6341 364.628 94.0214C364.467 94.4086 364.227 94.7581 363.923 95.0476C363.62 95.3371 363.259 95.5602 362.865 95.7029C362.47 95.8455 362.05 95.9045 361.632 95.8761ZM365.82 93.0081C365.82 91.6941 366.762 90.5781 368.046 90.3621C370.038 90.0321 372.45 89.1741 372.816 86.6421C373.212 83.6001 373.212 75.6861 373.212 73.7061C373.212 69.0861 373.08 61.5681 373.08 56.9481C373.08 50.3241 370.86 48.5061 367.74 47.6241C367.184 47.4614 366.696 47.1223 366.35 46.658C366.003 46.1937 365.817 45.6294 365.82 45.0501V44.7381C365.82 43.4241 366.762 42.3201 368.058 42.0981C374.628 40.9461 384.558 38.1381 389.778 36.3381C390.114 36.2217 390.47 36.1734 390.824 36.196C391.179 36.2186 391.526 36.3117 391.844 36.4698C392.162 36.6279 392.446 36.8478 392.679 37.1167C392.911 37.3856 393.088 37.6982 393.198 38.0361C393.306 38.3841 393.408 38.7141 393.498 39.0561C393.612 39.4508 393.814 39.8141 394.09 40.1181C394.367 40.422 394.709 40.6585 395.091 40.8092C395.473 40.9599 395.885 41.0209 396.294 40.9874C396.703 40.954 397.099 40.8269 397.452 40.6161C402.432 37.7241 407.154 35.5761 414.114 35.5761C419.124 35.5761 424.14 36.8961 428.232 39.7941C434.664 44.2581 435.744 51.0741 436.272 58.2921C436.284 58.3641 436.284 58.4361 436.284 58.5081V69.8781C436.284 71.8581 436.02 82.1481 436.02 84.3981C436.02 87.7341 436.92 89.7681 441.288 90.5781C441.892 90.7023 442.434 91.0332 442.821 91.514C443.207 91.9948 443.414 92.5953 443.406 93.2121C443.407 93.5792 443.332 93.9425 443.186 94.2795C443.041 94.6165 442.828 94.9199 442.56 95.1709C442.292 95.4219 441.975 95.6151 441.629 95.7385C441.284 95.8619 440.916 95.9128 440.55 95.8881C436.818 95.6361 431.166 95.4741 421.896 95.4741C416.658 95.4741 413.778 95.6181 411.096 95.8521C410.725 95.8854 410.351 95.8412 409.999 95.7221C409.646 95.6031 409.322 95.4119 409.047 95.1608C408.772 94.9096 408.552 94.604 408.402 94.2633C408.252 93.9227 408.174 93.5544 408.174 93.1821V92.6181C408.174 91.4121 408.984 90.3441 410.154 90.0381C414.012 88.9941 414.492 87.1521 414.378 79.1181L414.114 58.5321C413.976 52.2021 413.718 44.9421 405.138 44.9421C401.568 44.9421 398.796 46.2501 396.132 48.2601C395.782 48.5184 395.5 48.8572 395.308 49.2478C395.117 49.6384 395.023 50.0694 395.034 50.5041C395.244 57.1161 395.244 75.8841 395.244 81.7521C395.244 87.8061 396.288 89.4801 399.516 90.3321C400.668 90.6321 401.448 91.7121 401.448 92.9061V93.2541C401.449 93.6209 401.374 93.984 401.229 94.3208C401.084 94.6577 400.871 94.9612 400.604 95.2125C400.337 95.4639 400.021 95.6578 399.676 95.7823C399.331 95.9067 398.964 95.9591 398.598 95.9361C394.116 95.6541 388.356 95.4741 377.562 95.4741C373.41 95.4741 370.998 95.6061 368.748 95.8221C368.376 95.8573 368.001 95.8142 367.646 95.6956C367.292 95.5769 366.966 95.3854 366.691 95.1333C366.415 94.8812 366.195 94.5742 366.045 94.2319C365.895 93.8897 365.818 93.5198 365.82 93.1461V93.0081ZM503.082 81.5241C504.738 82.7241 504.966 85.1481 503.514 86.5881C496.238 93.8129 486.425 97.9045 476.172 97.9881C457.302 97.9881 443.448 84.9201 443.448 66.9741C443.448 48.1101 459.546 35.9721 479.208 35.9721C492.138 35.9721 504.408 41.6421 504.408 51.1461C504.408 55.6281 500.586 59.4561 496.098 59.4561C494.118 59.4561 491.742 58.5321 490.29 57.0801C489.102 56.0241 488.838 55.3641 486.33 49.6941C485.142 47.1861 482.502 42.6981 478.416 42.6981C470.76 42.6981 468.648 55.7601 468.648 62.2281C468.648 77.1381 477.096 87.1641 486.33 87.1641C491.238 87.1641 495.3 84.9081 498.906 81.7401C499.474 81.2355 500.197 80.9392 500.956 80.9C501.715 80.8607 502.465 81.0808 503.082 81.5241ZM521.304 74.2341C527.772 74.2341 533.304 79.3821 533.304 86.2401C533.304 92.9721 527.772 98.1201 521.436 98.1201C518.321 98.1521 515.321 96.947 513.093 94.7692C510.866 92.5914 509.594 89.6189 509.556 86.5041C509.556 78.3261 515.892 74.2341 521.304 74.2341Z" fill="#E8EBFF"/>
</svg>
