<svg width="604" height="123" viewBox="0 0 604 123" fill="none" xmlns="http://www.w3.org/2000/svg">
<path d="M344.999 8.52117C346.779 8.54241 348.563 8.56365 350.347 8.56896C350.347 21.5747 350.347 34.5751 350.337 47.5808C351.091 47.0338 351.25 46.0938 351.617 45.3079C354.24 39.7689 358.812 35.1433 364.405 32.5836C372.562 28.8556 382.498 29.3919 390.273 33.8369C399.019 38.7439 404.303 48.6483 404.441 58.5632C404.463 71.792 404.452 85.0207 404.447 98.2495C402.646 98.2283 400.851 98.2442 399.056 98.2123C399.099 85.1694 399.062 72.1265 399.072 59.0836C399.009 50.6504 394.335 42.2649 386.863 38.2129C378.026 33.2209 366.263 34.7185 358.568 41.1868C353.47 45.6637 350.523 52.3073 350.369 59.0624C350.321 72.1265 350.353 85.196 350.353 98.2601C348.547 98.2442 346.747 98.2229 344.946 98.2176C345.042 68.3188 344.925 38.42 344.999 8.52117Z" fill="#E8EBFF"/>
<path d="M521.514 30.7196C524.759 29.9708 528.115 30.0558 531.424 30.1885C531.434 31.941 531.424 33.6935 531.434 35.446C526.161 34.8884 520.595 35.462 515.98 38.2447C510.781 41.1603 506.99 46.3541 505.651 52.148C504.653 55.9875 504.945 59.9758 504.902 63.9004C504.881 75.3342 504.945 86.7626 504.876 98.1964C503.076 98.1805 501.281 98.1858 499.491 98.1645C499.565 84.6224 499.496 71.075 499.523 57.5329C499.65 50.6291 502.173 43.7412 506.905 38.659C510.834 34.6441 515.964 31.7552 521.514 30.7196Z" fill="#E8EBFF"/>
<path d="M199.456 36.0143C205.702 31.2931 213.822 29.9389 221.48 30.1142C229.313 30.1248 237.523 32.334 243.259 37.9261C246.45 41.3302 248.516 45.7911 249.031 50.4326C247.04 50.353 245.054 50.3689 243.067 50.3848C242.425 46.5506 240.555 42.8278 237.486 40.3743C232.935 36.5241 226.753 35.1858 220.917 35.2867C215.001 35.1168 208.819 36.1152 203.774 39.3706C200.142 41.6913 197.651 46.2425 198.846 50.5707C199.722 54.5431 203.593 56.8001 207.146 58.0746C217.831 61.7496 229.557 61.4734 239.977 66.0459C244.342 67.9152 248.346 71.3671 249.578 76.1042C250.444 80.0075 250.364 84.3357 248.256 87.846C245.011 93.5284 238.697 96.5235 232.6 98.1167C223.333 100.209 213.312 100.209 204.379 96.7147C196.971 93.9479 191.013 87.06 190.296 79.0569C192.303 79.0888 194.316 79.0888 196.329 79.0941C197.077 84.5853 200.954 89.3436 205.978 91.5528C213.153 94.8613 221.421 94.9463 229.084 93.6133C233.853 92.6468 238.803 90.8465 242.127 87.129C245.314 83.7249 245.34 78.0266 242.441 74.442C240.502 71.9938 237.566 70.6555 234.724 69.5509C227.491 67.0868 219.839 66.3857 212.398 64.8085C207.476 63.7357 202.42 62.4506 198.299 59.4182C195.011 57.055 192.978 53.0879 193.004 49.0306C192.696 43.9271 195.431 39.0254 199.456 36.0143Z" fill="#E8EBFF"/>
<path d="M279.073 35.0424C292.536 26.8216 311.659 28.675 322.716 40.1566C335.435 52.7481 335.796 75.4404 323.481 88.4302C312.344 100.942 291.904 102.891 278.091 93.762C274.065 91.2501 270.879 87.6283 268.208 83.7621C268.16 83.8524 268.075 84.033 268.027 84.1285C268.123 84.8242 268.282 85.5146 268.293 86.2209C268.288 97.7662 268.229 109.312 268.319 120.857C266.455 120.852 264.597 120.852 262.738 120.846C262.812 105.222 262.749 89.5985 262.77 73.9746C262.828 67.6922 262.366 61.2663 264.087 55.1432C266.248 46.8533 271.718 39.4609 279.073 35.0424ZM291.877 35.6425C283.248 37.1295 275.494 42.8862 271.543 50.7035C267.199 59.2801 267.14 69.9439 271.469 78.5418C273.949 83.6134 278.107 87.7876 282.982 90.5863C291.182 95.1693 301.569 95.5729 310.119 91.6962C316.142 89.0515 321.123 84.171 324.001 78.2709C327.039 72.2593 327.66 65.2387 326.513 58.6588C325.212 51.5054 321.07 44.9574 315.217 40.6611C308.579 35.8496 299.902 34.0653 291.877 35.6425Z" fill="#E8EBFF"/>
<path d="M428.026 39.3918C439.799 27.7669 460.245 27.0393 473.055 37.4057C481.621 44.182 486.31 55.3184 485.715 66.168C464.759 66.083 443.798 66.0777 422.843 66.168C423.262 73.3586 426.008 80.5545 431.154 85.6899C437.925 92.9495 448.668 95.8225 458.291 93.8948C466.793 92.3972 474.319 86.7042 478.339 79.0994C480.309 79.11 482.274 79.0994 484.249 79.0463C481.52 85.6846 476.517 91.4307 470.229 94.9304C461.589 99.9223 450.814 100.894 441.324 97.9256C434.122 95.7907 427.835 91.0217 423.533 84.9039C414.117 71.2556 415.801 50.8097 428.026 39.3918ZM434.091 41.1656C427.898 45.908 424.192 53.311 423.06 60.9424C442.067 60.9848 461.069 60.8946 480.07 60.9848C479.725 56.3115 478.057 51.755 475.455 47.8676C470.304 39.9229 460.856 34.9734 451.393 35.3027C445.168 35.1646 439.024 37.4322 434.091 41.1656Z" fill="#E8EBFF"/>
<path d="M552.252 32.4668C565.051 27.4535 580.882 30.539 590.186 40.8469C596.389 47.6764 599.49 56.9912 599.198 66.1574C580.382 66.0565 561.562 66.1468 542.746 66.1149C540.691 66.0724 538.614 66.3008 536.596 65.8334C536.187 68.2073 536.761 70.5758 537.329 72.87C539.092 79.7154 543.383 85.9182 549.384 89.7153C556.102 94.1816 564.679 95.4402 572.507 93.7355C580.579 91.983 587.902 86.5608 591.593 79.1259C593.654 79.0781 595.714 79.0941 597.78 79.0781C595.295 84.6437 591.344 89.5348 586.437 93.1407C574.079 102.02 555.969 101.696 543.946 92.36C537.186 87.1609 532.688 79.2534 531.365 70.8573C529.846 61.5265 531.907 51.516 537.531 43.8475C541.1 38.6324 546.432 34.8088 552.252 32.4668ZM544.775 43.651C540.107 48.2181 537.356 54.5271 536.559 60.9636C555.55 60.937 574.541 60.937 593.537 60.9636C592.857 54.4793 589.979 48.2022 585.348 43.5979C580.08 38.2288 572.576 35.1008 565.045 35.292C557.525 35.1221 549.974 38.2076 544.775 43.651Z" fill="#E8EBFF"/>
<path d="M26.1761 21.2083C37.4027 10.8047 52.2247 4.53289 67.4237 3.10964C74.6993 2.76976 82.0757 2.80162 89.192 4.51165C100.169 6.8855 110.525 11.9518 119.202 19.0681C125.559 24.2353 130.843 30.6293 135.166 37.5703C135.177 37.5862 135.193 37.6234 135.203 37.6393C135.564 38.2978 135.92 38.9564 136.276 39.6202C136.281 39.6414 136.303 39.6733 136.313 39.6892L136.834 40.6929C136.844 40.7142 136.865 40.7514 136.876 40.7726L137.365 41.7338C137.375 41.7498 137.397 41.7922 137.407 41.8082L137.922 42.8384C137.928 42.8544 137.944 42.8915 137.954 42.9075C138.283 43.5819 138.602 44.2564 138.91 44.9414C138.921 44.9574 138.937 44.9945 138.942 45.0105C139.101 45.3875 139.42 46.1416 139.574 46.524C139.579 46.5346 139.595 46.5665 139.6 46.5771C139.94 47.4321 140.301 48.2871 140.62 49.1528C140.625 49.1687 140.636 49.2006 140.641 49.2165L140.859 50.1565C140.981 50.4061 141.231 50.9053 141.358 51.1549C141.443 51.4629 141.608 52.0842 141.693 52.3922C141.698 52.4082 141.703 52.44 141.703 52.456L141.826 53.3322C141.958 53.5765 142.229 54.0704 142.367 54.3147C142.394 54.5962 142.452 55.1538 142.479 55.4299C142.59 55.6795 142.803 56.1787 142.914 56.4283C143.387 58.5791 144.061 60.7618 144.024 62.9763C143.875 63.6402 144.051 64.3093 144.369 64.8988C144.853 65.8388 144.725 66.9434 144.704 67.963C144.529 69.5243 144.523 71.1122 145.017 72.6257C145.516 75.2386 144.741 77.8779 144.55 80.4855C144.343 81.9087 144.157 83.3373 143.976 84.7658C143.934 85.0632 143.844 85.658 143.801 85.9554C143.796 85.9767 143.791 86.0085 143.791 86.0244C143.668 86.7945 143.541 87.5645 143.403 88.3293C143.291 88.5789 143.079 89.0727 142.967 89.3223C142.92 89.8056 142.824 90.7721 142.776 91.2607C142.771 91.2713 142.766 91.3032 142.76 91.3191C142.256 93.5496 141.64 95.7588 140.848 97.9096C137.991 96.8263 135.012 96.104 132.043 95.4083L131.47 94.633L132.261 94.7286C133.19 94.8348 134.109 94.9941 135.023 95.1747C135.83 95.334 136.664 95.4455 137.481 95.2649C138.315 95.5836 139.138 95.9128 139.967 96.2421C140.482 94.9463 141.135 93.693 141.438 92.3282C143.217 84.4047 144.449 76.2848 144.04 68.1436C143.929 66.1521 143.297 64.2509 142.983 62.2966C142.277 56.0566 140.147 50.0503 137.434 44.4157C135.968 40.3796 133.371 36.933 131.045 33.3696C128.926 30.0026 125.995 27.273 123.27 24.4106C121.268 22.5465 119.425 20.486 117.147 18.9459C111.56 15.032 105.889 10.826 99.1441 9.20624C96.4622 8.39371 94.1468 6.61996 91.3321 6.18449C84.0938 4.09742 76.5049 3.83189 69.0222 4.01776C54.3436 5.21796 40.0049 10.9003 28.7464 20.4435C26.7549 22.2598 24.9812 24.299 22.9897 26.1153C20.2176 28.0802 18.4385 30.9745 16.5692 33.736C12.5596 38.6112 10.0955 44.5007 7.71103 50.2839C6.548 53.5181 5.5974 56.8426 4.81674 60.1936C4.55652 64.0756 3.86082 67.9365 4.02014 71.8398C4.06794 76.0405 3.81834 80.2837 4.48217 84.4472C4.97606 86.7361 7.86504 86.4812 9.65472 86.6617C7.73758 86.8848 5.81513 87.0813 3.88207 87.1025C3.70151 85.6846 3.54219 84.2666 3.39349 82.8487C3.38818 82.8009 3.37756 82.7159 3.36694 82.6681C3.13327 81.2555 2.90491 79.8269 2.95271 78.3824C3.39349 76.0245 2.62345 73.6719 3.0005 71.3246C2.57034 66.9327 3.45722 62.5515 4.37595 58.2764C4.37595 58.2605 4.38658 58.2286 4.39189 58.2127C4.51934 57.7029 4.77956 56.6885 4.90702 56.1787C4.91233 56.1575 4.91764 56.1256 4.92295 56.1097C5.58147 53.3906 6.42055 50.7247 7.4986 48.1437C7.50391 48.1331 7.51453 48.1066 7.51985 48.0906C7.88628 47.2409 8.24209 46.3806 8.57135 45.5203C8.58197 45.5044 8.59259 45.4725 8.5979 45.4566C9.35201 43.6403 10.2442 41.8931 11.2054 40.1778C11.2107 40.1672 11.2214 40.1406 11.232 40.1247C13.0907 36.6091 15.2627 33.2581 17.7534 30.162C17.764 30.146 17.7906 30.1142 17.8012 30.0982C19.3147 27.9846 21.1522 26.1312 22.9791 24.2884C22.9897 24.2778 23.0109 24.2566 23.0216 24.2459C23.2818 23.9963 23.7969 23.4971 24.0518 23.2475C24.0624 23.2369 24.089 23.2104 24.1049 23.1944C24.3917 22.9236 24.9653 22.3819 25.2573 22.1057C25.3211 22.0473 25.4538 21.9199 25.5176 21.8561C25.6185 21.7606 25.815 21.5694 25.9105 21.4738C25.9796 21.4047 26.1123 21.272 26.1761 21.2083Z" fill="#E8EBFF"/>
<path d="M28.7464 20.4435C40.0049 10.9003 54.3436 5.21796 69.0222 4.01776C76.5049 3.83189 84.0938 4.09742 91.3321 6.18449C94.1468 6.61996 96.4622 8.39371 99.1441 9.20624C105.889 10.826 111.56 15.032 117.147 18.9459C119.425 20.486 121.268 22.5465 123.27 24.4106C122.484 24.3203 121.693 24.2406 120.907 24.1716C121.666 24.8301 122.527 25.3665 123.276 26.0356C123.467 27.2146 123.222 28.5422 124.125 29.4875C125.665 31.5215 126.86 33.8104 127.391 36.317C127.694 37.9261 129.324 38.8501 129.654 40.438C130.137 42.3817 130.068 44.421 130.657 46.3381C132.176 50.5335 131.98 55.3131 130.429 59.4713C129.988 61.0008 128.618 61.8983 127.646 63.056C127.035 65.3024 126.621 67.9258 128.268 69.8483C128.007 70.1722 127.742 70.4962 127.482 70.8201C128.129 71.3937 128.825 71.93 129.388 72.5992C129.707 73.4064 129.096 74.2242 128.905 74.9996C128.751 74.7075 128.453 74.118 128.299 73.8259C127.667 73.7888 127.041 73.7516 126.409 73.7144C126.589 74.9146 126.765 76.1201 126.935 77.3256C126.738 77.3097 126.35 77.2778 126.159 77.2619C125.777 77.2141 125.4 77.1557 125.023 77.1079C123.026 78.0266 121.735 75.7962 120.403 74.6969C119.978 74.6969 119.558 74.6969 119.144 74.6969C118.953 74.0702 118.767 73.4436 118.586 72.8222C118.22 73.1249 117.859 73.4276 117.498 73.7356C116.85 73.1993 116.207 72.6629 115.57 72.1212C115.304 73.6082 115.448 75.1164 115.719 76.5928C115.511 76.529 115.097 76.3963 114.89 76.3325C114.603 74.665 114.869 72.4292 112.766 71.9619C112.723 71.3618 112.686 70.7617 112.654 70.1616C112.644 68.2763 112.527 66.1627 113.886 64.6598C116.791 61.0379 119.797 57.3364 121.348 52.8968C121.874 51.5479 123.504 50.9796 123.886 49.5511C124.683 47.31 124.083 44.9149 123.849 42.626C123.69 41.0806 122.861 39.7423 122.367 38.2978C121.603 36.1364 121.581 33.7997 120.939 31.6065C120.371 31.1922 119.749 30.8683 119.144 30.5178C119.17 29.6362 119.202 28.7547 119.234 27.8731C118.793 27.9262 118.358 27.9846 117.922 28.043C117.875 26.9331 117.864 25.8179 117.689 24.7239C117.083 24.0972 116.292 23.6936 115.57 23.2104C115.187 21.6384 114.566 20.1408 113.817 18.7069C113.546 18.776 113.005 18.9088 112.734 18.9778C109.038 15.6374 104.476 13.5078 100.36 10.7676C97.9492 9.68951 95.3841 8.96726 92.8828 8.10694C87.8377 6.82708 82.7873 5.0905 77.5192 5.2392C73.3185 5.27107 68.9956 4.75062 64.9171 6.02517C62.0759 6.49782 59.0966 6.10483 56.3564 7.17227C53.5577 8.2875 50.5306 8.80794 47.9018 10.3215C43.2444 12.775 37.8966 14.4744 34.4341 18.6592C33.3507 19.8806 31.954 20.7887 30.9503 22.0792C30.1006 25.4939 28.8686 28.8556 26.978 31.8401C26.3938 34.5273 26.1442 37.3579 24.7794 39.822C23.4358 42.1215 23.4252 44.8565 23.4039 47.4374C23.4942 49.5935 23.4305 52.0736 25.1724 53.6456C25.7512 56.6514 28.6243 58.2658 30.2706 60.645C31.7257 62.8967 33.8446 64.5961 35.3157 66.8318C36.0751 67.8409 37.1213 68.5843 38.1568 69.2907C38.1568 69.6465 38.1622 70.3634 38.1622 70.7192C35.9211 70.9104 33.7543 70.2306 31.9912 68.8499C31.9328 69.5562 31.8744 70.2678 31.816 70.9741C31.2955 71.0644 30.7698 71.1547 30.244 71.2503C29.2828 72.9444 28.7464 76.2423 26.1017 75.5413C25.2998 74.5376 24.6625 73.417 24.0359 72.2965C23.1915 73.0984 22.3259 73.879 21.6089 74.8031C21.1628 73.2258 21.0513 71.5902 21.1522 69.9598C21.3169 69.057 21.7098 68.2232 22.1666 67.4373C20.414 65.3608 19.8511 62.6311 18.2526 60.4697C17.6525 59.4182 17.5941 58.1224 16.84 57.1346C15.8363 55.7698 15.8363 53.9961 15.7088 52.3763C15.592 50.9531 16.7603 49.8538 16.9409 48.4889C16.8453 47.2675 16.3886 46.1045 16.2611 44.8883C16.6701 43.0615 17.8225 41.4789 18.1092 39.6149C18.481 36.1046 20.7327 33.1572 21.0885 29.6203C21.7045 29.2007 22.3418 28.8078 22.8782 28.2873C22.9472 27.5651 22.9844 26.8375 22.9897 26.1153C24.9812 24.299 26.7549 22.2598 28.7464 20.4435Z" fill="#E8EBFF"/>
<path d="M64.9171 6.02517C68.9956 4.75062 73.3185 5.27107 77.5192 5.2392C82.7873 5.0905 87.8377 6.82708 92.8828 8.10694C95.3841 8.96726 97.9492 9.68951 100.36 10.7676C104.476 13.5078 109.038 15.6374 112.734 18.9778C113.005 18.9088 113.546 18.776 113.817 18.7069C114.566 20.1408 115.187 21.6384 115.57 23.2104C116.292 23.6936 117.083 24.0972 117.689 24.7239C117.864 25.8179 117.875 26.9331 117.922 28.043C118.358 27.9846 118.793 27.9262 119.234 27.8731C119.202 28.7547 119.17 29.6362 119.144 30.5178C119.749 30.8683 120.371 31.1922 120.939 31.6065C121.581 33.7997 121.603 36.1364 122.367 38.2978C122.861 39.7423 123.69 41.0806 123.849 42.626C124.083 44.9149 124.683 47.31 123.886 49.5511C123.504 50.9796 121.874 51.5479 121.348 52.8968C119.797 57.3364 116.791 61.0379 113.886 64.6598C112.527 66.1627 112.644 68.2763 112.654 70.1616C111.008 70.5918 109.919 71.7973 109.441 73.3958C109.776 73.9746 110.116 74.5482 110.45 75.127C109.808 75.7271 109.16 76.3325 108.385 76.7574C107.758 75.8918 107.875 73.9428 106.398 74.2827C105.681 72.8329 105.315 71.2556 104.933 69.6996C103.839 69.142 102.766 68.5472 101.752 67.8674C103.961 66.0087 106.866 64.9413 108.427 62.3815C110.928 58.4304 113.785 54.713 116.759 51.1071C118.252 48.319 118.416 45.0901 118.799 42.0153C119.096 40.1353 117.625 38.6165 117.126 36.9012C116.335 34.3202 114.725 32.0632 114.157 29.4079C113.653 27.2995 112.405 25.3187 112.968 23.0776C112.049 22.6368 111.077 22.281 110.259 21.6703C109.882 20.7568 109.712 19.7744 109.287 18.8875C107.009 16.2641 103.801 14.7558 101.104 12.6422C100.403 12.1005 99.5689 11.7872 98.7564 11.4686C93.3343 9.15844 87.6678 7.41125 81.8155 6.66776C73.5415 4.80373 64.9649 6.35974 57.0096 8.88229C54.2321 9.60454 51.6936 10.98 49.0914 12.1483C48.1143 12.5732 47.1796 13.1733 46.6698 14.1451C44.9066 14.8567 43.2179 15.7277 41.4972 16.5402C41.1467 16.2853 40.7909 16.0357 40.4351 15.7808C39.527 17.8944 38.3268 19.8594 37.0522 21.7765C35.9476 23.3166 36.1441 25.3293 35.305 26.9915C33.7278 30.4753 33.9455 34.4211 33.0799 38.0695C31.3964 40.6611 32.0018 43.7943 31.7257 46.7099C31.5451 47.9366 32.8462 48.6536 33.1277 49.7476C33.5578 52.6737 35.39 55.1963 37.5036 57.1771C39.2243 58.8287 40.1855 61.2238 42.3044 62.4612C43.6162 63.2684 44.9279 64.0809 46.1812 64.9731C47.87 66.2052 50.0102 66.4601 51.8636 67.3523C53.0425 67.8302 54.2109 68.5259 55.5279 68.4622C56.6484 68.4994 57.8433 68.186 58.9002 68.7012C60.488 69.4075 62.0334 70.3262 63.8231 70.3581C63.2867 70.8095 62.745 71.2609 62.2087 71.7176C64.0249 72.3124 65.8464 72.9072 67.6945 73.3905C66.7971 73.7888 65.8996 74.1871 64.9967 74.58C61.4705 73.5339 57.9071 72.4452 54.2215 72.2168C53.4355 71.8716 52.7504 71.3459 51.9804 70.9794C50.8227 70.8998 49.6597 71.3299 48.5179 71.1069C46.7919 70.3528 45.0394 68.3294 43.1329 69.8483C41.4972 69.4659 39.8244 69.3756 38.1568 69.2907C37.1213 68.5843 36.0751 67.8409 35.3157 66.8318C33.8446 64.5961 31.7257 62.8967 30.2706 60.645C28.6243 58.2658 25.7512 56.6514 25.1724 53.6456C23.4305 52.0736 23.4942 49.5935 23.4039 47.4374C23.4252 44.8565 23.4358 42.1215 24.7794 39.822C26.1442 37.3579 26.3938 34.5273 26.978 31.8401C28.8686 28.8556 30.1006 25.4939 30.9503 22.0792C31.954 20.7887 33.3507 19.8806 34.4341 18.6592C37.8966 14.4744 43.2444 12.775 47.9018 10.3215C50.5306 8.80794 53.5577 8.2875 56.3564 7.17227C59.0966 6.10483 62.0759 6.49782 64.9171 6.02517Z" fill="#E8EBFF"/>
<path d="M57.0096 8.88229C64.9649 6.35974 73.5415 4.80373 81.8155 6.66776C87.6678 7.41125 93.3343 9.15844 98.7564 11.4686C99.1175 13.7468 101.555 14.3682 103.302 15.2922C103.897 16.7367 104.784 18.0537 105.262 19.546C105.623 21.6968 106.069 23.8317 106.542 25.9613C107.078 27.2199 108.241 28.1652 108.539 29.5353C108.963 31.5746 109.627 33.5873 109.67 35.6903C109.723 38.1651 110.456 40.5549 111.22 42.8915C111.81 44.2829 111.157 45.7433 110.865 47.1241C110.53 47.1029 110.195 47.0816 109.866 47.0604C108.767 49.3439 107.349 51.4576 105.979 53.5818C105.129 54.867 103.674 55.5149 102.607 56.5823C101.683 57.4267 101.003 58.6163 99.7601 59.0305C98.0076 59.6572 96.5047 60.7512 94.885 61.6274C92.4314 62.5833 89.8558 63.21 87.4554 64.3093C85.3471 65.3024 82.9785 65.0103 80.7268 64.9997C76.8341 64.9094 72.9361 65.1271 69.0434 64.9784C64.0833 64.4102 59.0966 63.3162 54.641 60.9902C53.1859 60.5972 51.5609 60.7459 50.2491 59.8962C48.7781 59.089 47.9443 57.5701 46.8557 56.3593C45.8519 55.1378 44.0623 54.9254 43.1223 53.6349C41.7574 51.7922 41.322 49.4767 40.2386 47.4852C38.8897 45.2335 39.134 42.472 39.357 39.9707C40.0262 37.8252 39.9731 35.4992 41.0352 33.4811C40.8759 32.2384 40.1643 30.9957 40.7962 29.769C42.4478 25.4674 42.6921 20.7993 44.3756 16.503C45.3846 15.9773 46.3087 15.2816 46.6698 14.1451C47.1796 13.1733 48.1143 12.5732 49.0914 12.1483C51.6936 10.98 54.2321 9.60454 57.0096 8.88229ZM67.8167 7.92107C64.163 9.08941 60.2384 9.60985 57.0786 11.9571C54.8694 11.3889 53.2921 13.5185 51.5024 14.4478C49.5481 15.4834 49.187 17.8148 48.656 19.7531C48.0293 21.9093 48.4382 24.1769 48.0027 26.3649C47.4557 28.8078 48.0612 31.3462 47.4292 33.7679C46.9194 35.4514 47.1477 37.2251 46.7972 38.9298C46.2662 42.865 47.7213 46.6993 49.2083 50.2627C51.9167 53.6987 56.2183 55.1963 59.3834 58.1224C60.2384 59.0624 61.5502 58.4198 62.6176 58.3455C62.8884 58.6429 63.154 58.9456 63.4248 59.243C64.9914 59.4341 66.4094 60.3157 68.0079 60.252C70.8331 60.3051 73.6584 60.1245 76.4783 60.321C79.5426 60.5706 82.5962 59.9971 85.5595 59.2748C88.7193 58.5101 90.8383 55.7539 93.8866 54.7236C95.6815 54.2032 96.4197 52.2754 98.0713 51.5054C100.307 50.3901 100.934 47.4374 103.377 46.6568C103.632 45.5097 103.86 44.3573 104.067 43.1996C103.557 42.5092 102.729 41.9197 102.623 41.0116C103.143 35.685 101.173 30.4169 101.81 25.0903C100.859 23.2741 100.142 21.3145 99.9885 19.2539C99.8451 17.8466 99.8982 16.1685 98.6661 15.1966C96.4569 13.5025 94.3008 10.9959 91.2206 11.3411C86.4304 8.45744 80.5994 8.55303 75.2197 7.80954C72.7768 7.32628 70.2596 7.50684 67.8167 7.92107Z" fill="#E8EBFF"/>
<path d="M67.8167 7.92107C70.2596 7.50684 72.7768 7.32628 75.2197 7.80954C80.5994 8.55303 86.4304 8.45744 91.2206 11.3411C92.8244 12.3607 94.9274 12.9184 95.8674 14.7027C96.9614 16.673 96.1276 19.0521 97.0039 21.0808C97.981 23.375 97.7846 25.9135 98.236 28.3192C98.8732 31.6861 99.6645 35.0371 100.164 38.4253C99.7973 40.2256 99.3087 42.0047 98.7723 43.7625C97.997 45.361 96.8871 46.7842 95.9577 48.2978C94.7894 50.1883 92.5323 50.884 91.0719 52.4825C89.9779 53.6721 88.7087 54.9042 87.0093 55.0635C85.1984 55.2175 83.6424 56.2318 81.9164 56.6673C76.4093 56.8957 70.8384 57.1771 65.3791 56.2212C62.5963 55.1272 59.5268 54.3997 57.3176 52.2701C54.949 50.6291 52.5062 48.8394 51.2953 46.1257C50.7802 43.7041 51.1042 41.1815 50.3978 38.7864C51.1254 37.0392 51.1254 35.1115 51.7361 33.3377C52.7504 30.3054 51.7945 27.1296 51.5874 24.0548C51.7096 21.033 52.2619 18.0484 52.8938 15.101C54.3171 14.092 55.6713 12.9927 57.0786 11.9571C60.2384 9.60985 64.163 9.08941 67.8167 7.92107ZM70.5198 10.0241C68.9532 10.3002 67.1794 10.1462 65.8783 11.2243C64.4126 11.1659 62.8459 11.4633 61.6989 12.4245C60.4827 13.5397 60.6951 15.3135 60.0419 16.6995C58.693 19.2115 59.7021 22.1907 59.1073 24.8567C57.7106 27.2146 58.5603 29.992 58.2841 32.5677C58.1991 34.1556 57.4557 35.7222 57.8699 37.3154C58.3372 39.2909 58.1301 41.4736 59.2666 43.2367C60.9076 45.9664 62.9787 48.6589 66.0111 49.9016C67.583 50.2202 69.1019 50.7141 70.6207 51.2133C73.0955 51.3195 75.5914 51.277 78.0662 51.1549C81.9536 50.5442 84.8532 47.6286 88.2945 45.9717C91.2312 43.1836 90.1638 38.8077 90.4931 35.2177C91.0772 32.2331 90.8754 29.1954 90.9285 26.1737C90.3975 25.7595 89.8717 25.3399 89.3513 24.9151C89.3407 22.674 89.261 20.4276 89.415 18.1865C89.6699 15.9879 88.491 13.9008 87.2005 12.2174C85.7932 11.6863 84.1734 10.6614 82.6546 11.3146C78.7672 10.0931 74.5824 9.21155 70.5198 10.0241Z" fill="#E8EBFF"/>
<path d="M70.5198 10.0241C74.5824 9.21155 78.7672 10.0931 82.6546 11.3146C83.5043 11.75 84.3965 12.143 85.1134 12.7962C85.5383 14.3044 85.825 15.8445 86.2339 17.358C86.9721 19.939 86.0003 22.7059 86.9615 25.2443C88.4432 29.1636 87.089 33.3218 87.073 37.3472C87.0093 38.8661 87.243 40.4274 86.8447 41.9091C85.5701 44.7927 82.7767 46.5612 79.9408 47.6658C78.2361 48.1119 76.4305 47.9366 74.7258 48.3933C72.7662 49.0466 70.8703 47.8729 68.9585 47.5808C65.8465 47.2728 63.4142 44.8246 62.0122 42.1958C60.8067 37.6446 61.7254 32.9341 61.6245 28.3086C61.5183 26.11 62.9469 24.1663 62.761 21.9464C63.069 19.1477 61.6882 16.2375 62.8035 13.5397C63.6001 12.536 64.8905 12.0315 65.8783 11.2243C67.1794 10.1462 68.9532 10.3002 70.5198 10.0241ZM67.0467 12.5891C66.5368 13.5928 67.9495 14.0655 67.8964 14.9948C67.7052 17.8254 68.061 20.6506 67.9442 23.4865C68.0185 29.6044 67.7848 35.7328 68.0769 41.8453C70.3499 42.8544 72.5803 44.2457 75.1825 44.0015C76.4199 43.3854 77.636 42.695 79.0062 42.4083C79.1071 39.8857 79.4894 37.3685 79.9143 34.8884C81.6774 30.9533 80.6418 26.5561 80.1373 22.4669C80.1055 21.7871 79.5479 21.3145 79.1921 20.7887C78.8203 17.9741 80.1851 15.2657 79.5903 12.451C77.3705 11.7447 75.0232 11.5217 72.7184 11.2986C70.8597 11.8616 68.9957 12.4032 67.0467 12.5891Z" fill="#E8EBFF"/>
<path d="M82.6546 11.3146C84.1734 10.6614 85.7932 11.6863 87.2005 12.2174C88.491 13.9008 89.6699 15.9879 89.415 18.1865C89.261 20.4276 89.3407 22.674 89.3513 24.9151C89.8717 25.3399 90.3975 25.7595 90.9285 26.1737C90.8754 29.1954 91.0772 32.2331 90.4931 35.2177C90.1638 38.8077 91.2312 43.1836 88.2945 45.9717C84.8532 47.6286 81.9536 50.5442 78.0662 51.1549C75.5914 51.277 73.0955 51.3195 70.6207 51.2133C69.1019 50.7141 67.583 50.2202 66.0111 49.9016C62.9787 48.6589 60.9076 45.9664 59.2666 43.2367C58.1301 41.4736 58.3372 39.2909 57.8699 37.3154C57.4557 35.7222 58.1991 34.1556 58.2841 32.5677C58.5603 29.992 57.7106 27.2146 59.1073 24.8567C59.7021 22.1907 58.693 19.2115 60.0419 16.6995C60.6951 15.3135 60.4827 13.5397 61.6989 12.4245C62.8459 11.4633 64.4126 11.1659 65.8783 11.2243C64.8905 12.0315 63.6001 12.536 62.8035 13.5397C61.6882 16.2375 63.069 19.1477 62.761 21.9464C62.9469 24.1663 61.5183 26.11 61.6245 28.3086C61.7254 32.9341 60.8067 37.6446 62.0122 42.1958C63.4142 44.8246 65.8465 47.2728 68.9585 47.5808C70.8703 47.8729 72.7662 49.0466 74.7258 48.3933C76.4305 47.9366 78.2361 48.1119 79.9408 47.6658C82.7767 46.5612 85.5701 44.7927 86.8447 41.9091C87.243 40.4274 87.0093 38.8661 87.073 37.3472C87.089 33.3218 88.4432 29.1636 86.9615 25.2443C86.0003 22.7059 86.9721 19.939 86.2339 17.358C85.825 15.8445 85.5383 14.3044 85.1134 12.7962C84.3965 12.143 83.5043 11.75 82.6546 11.3146Z" fill="#E8EBFF"/>
<path d="M67.0467 12.5891C68.9957 12.4032 70.8597 11.8616 72.7184 11.2986C75.0232 11.5217 77.3705 11.7447 79.5903 12.451C80.1851 15.2657 78.8203 17.9741 79.1921 20.7887C79.5479 21.3145 80.1055 21.7871 80.1373 22.4669C80.6418 26.5561 81.6774 30.9533 79.9143 34.8884C79.4894 37.3685 79.1071 39.8857 79.0062 42.4083C77.636 42.695 76.4199 43.3854 75.1825 44.0015C72.5803 44.2457 70.3499 42.8544 68.0769 41.8453C67.7848 35.7328 68.0185 29.6044 67.9442 23.4865C68.061 20.6506 67.7052 17.8254 67.8964 14.9948C67.9495 14.0655 66.5368 13.5928 67.0467 12.5891Z" fill="#E8EBFF"/>
<path d="M91.2206 11.3411C94.3008 10.9959 96.4569 13.5025 98.6661 15.1966C99.8982 16.1685 99.8451 17.8466 99.9885 19.2539C100.142 21.3145 100.859 23.2741 101.81 25.0903C101.173 30.4169 103.143 35.685 102.623 41.0116C102.729 41.9197 103.557 42.5092 104.067 43.1996C103.86 44.3573 103.632 45.5097 103.377 46.6568C100.934 47.4374 100.307 50.3901 98.0713 51.5054C96.4197 52.2754 95.6815 54.2032 93.8866 54.7236C90.8383 55.7539 88.7193 58.5101 85.5595 59.2748C82.5962 59.9971 79.5426 60.5706 76.4783 60.321C73.6584 60.1245 70.8331 60.3051 68.0079 60.252C66.4094 60.3157 64.9914 59.4341 63.4248 59.243C63.154 58.9456 62.8884 58.6429 62.6176 58.3455C61.5502 58.4198 60.2384 59.0624 59.3834 58.1224C56.2183 55.1963 51.9167 53.6987 49.2083 50.2627C47.7213 46.6993 46.2662 42.865 46.7972 38.9298C47.1477 37.2251 46.9194 35.4514 47.4292 33.7679C48.0612 31.3462 47.4557 28.8078 48.0027 26.3649C48.4382 24.1769 48.0293 21.9093 48.656 19.7531C49.187 17.8148 49.5481 15.4834 51.5024 14.4478C53.2921 13.5185 54.8694 11.3889 57.0786 11.9571C55.6713 12.9927 54.3171 14.092 52.8938 15.101C52.2619 18.0484 51.7096 21.033 51.5874 24.0548C51.7945 27.1296 52.7504 30.3054 51.7361 33.3377C51.1254 35.1115 51.1254 37.0392 50.3978 38.7864C51.1042 41.1815 50.7802 43.7041 51.2953 46.1257C52.5062 48.8394 54.949 50.6291 57.3176 52.2701C59.5268 54.3997 62.5963 55.1272 65.3791 56.2212C70.8384 57.1771 76.4093 56.8957 81.9164 56.6673C83.6424 56.2318 85.1984 55.2175 87.0093 55.0635C88.7087 54.9042 89.9779 53.6721 91.0719 52.4825C92.5323 50.884 94.7894 50.1883 95.9577 48.2978C96.8871 46.7842 97.997 45.361 98.7723 43.7625C99.3087 42.0047 99.7973 40.2256 100.164 38.4253C99.6645 35.0371 98.8732 31.6861 98.236 28.3192C97.7846 25.9135 97.981 23.375 97.0039 21.0808C96.1276 19.0521 96.9614 16.673 95.8674 14.7027C94.9274 12.9184 92.8244 12.3607 91.2206 11.3411Z" fill="#E8EBFF"/>
<path d="M98.7564 11.4686C99.5689 11.7872 100.403 12.1005 101.104 12.6422C103.801 14.7558 107.009 16.2641 109.287 18.8875C109.712 19.7744 109.882 20.7568 110.259 21.6703C111.077 22.281 112.049 22.6368 112.968 23.0776C112.405 25.3187 113.653 27.2995 114.157 29.4079C114.725 32.0632 116.335 34.3202 117.126 36.9012C117.625 38.6165 119.096 40.1353 118.799 42.0153C118.416 45.0901 118.252 48.319 116.759 51.1071C113.785 54.713 110.928 58.4304 108.427 62.3815C106.866 64.9413 103.961 66.0087 101.752 67.8674C100.727 68.6852 99.9035 69.7049 99.2556 70.8361C98.2678 70.6502 97.2854 70.459 96.3029 70.2784C95.5116 70.7245 94.7947 71.4415 93.86 71.5317C92.4633 71.3937 91.0666 71.1972 89.6752 71.006C90.0895 71.5317 90.4984 72.0681 90.902 72.6151C89.8558 72.9391 88.8255 73.5338 87.6944 73.3958C86.8287 73.1302 86.1702 72.4558 85.4427 71.9513C82.7714 73.656 79.3142 73.9375 76.4996 72.3921C74.7152 71.0219 73.1486 73.9268 71.2633 72.8541C71.5819 72.4717 71.9006 72.0947 72.2192 71.7176C69.4311 71.1972 66.659 70.5599 63.8231 70.3581C62.0334 70.3262 60.488 69.4075 58.9002 68.7012C57.8433 68.186 56.6484 68.4994 55.5279 68.4622C54.2109 68.5259 53.0425 67.8302 51.8636 67.3523C50.0102 66.4601 47.87 66.2052 46.1812 64.9731C44.9279 64.0809 43.6162 63.2684 42.3044 62.4612C40.1855 61.2238 39.2243 58.8287 37.5036 57.1771C35.39 55.1963 33.5578 52.6737 33.1277 49.7476C32.8462 48.6536 31.5451 47.9366 31.7257 46.7099C32.0018 43.7943 31.3964 40.6611 33.0799 38.0695C33.9455 34.4211 33.7278 30.4753 35.305 26.9915C36.1441 25.3293 35.9476 23.3166 37.0522 21.7765C38.3268 19.8594 39.527 17.8944 40.4351 15.7808C40.7909 16.0357 41.1467 16.2853 41.4972 16.5402C43.2179 15.7277 44.9066 14.8567 46.6698 14.1451C46.3087 15.2816 45.3846 15.9773 44.3756 16.503C42.6921 20.7993 42.4478 25.4674 40.7962 29.769C40.1643 30.9957 40.8759 32.2384 41.0352 33.4811C39.9731 35.4992 40.0262 37.8252 39.357 39.9707C39.134 42.472 38.8897 45.2335 40.2386 47.4852C41.322 49.4767 41.7574 51.7922 43.1223 53.6349C44.0623 54.9254 45.8519 55.1378 46.8557 56.3593C47.9443 57.5701 48.7781 59.089 50.2491 59.8962C51.5609 60.7459 53.1859 60.5972 54.641 60.9902C59.0966 63.3162 64.0833 64.4102 69.0434 64.9784C72.9361 65.1271 76.8341 64.9094 80.7268 64.9997C82.9785 65.0103 85.3471 65.3024 87.4554 64.3093C89.8558 63.21 92.4314 62.5833 94.885 61.6274C96.5047 60.7512 98.0076 59.6572 99.7601 59.0305C101.003 58.6163 101.683 57.4267 102.607 56.5823C103.674 55.5149 105.129 54.867 105.979 53.5818C107.349 51.4576 108.767 49.3439 109.866 47.0604C110.195 47.0816 110.53 47.1029 110.865 47.1241C111.157 45.7433 111.81 44.2829 111.22 42.8915C110.456 40.5549 109.723 38.1651 109.67 35.6903C109.627 33.5873 108.963 31.5746 108.539 29.5353C108.241 28.1652 107.078 27.2199 106.542 25.9613C106.069 23.8317 105.623 21.6968 105.262 19.546C104.784 18.0537 103.897 16.7367 103.302 15.2922C101.555 14.3682 99.1175 13.7468 98.7564 11.4686Z" fill="#E8EBFF"/>
<path d="M120.907 24.1716C121.693 24.2406 122.484 24.3203 123.27 24.4106C125.995 27.273 128.926 30.0026 131.045 33.3696C130.578 33.6404 130.11 33.9166 129.648 34.1927C130.445 35.3664 131.231 36.5825 131.597 37.9686C132.139 39.7689 131.741 41.7604 132.675 43.4545C132.851 43.0243 133.021 42.5941 133.19 42.1587C133.456 42.318 133.716 42.4773 133.987 42.6419C134.035 43.6881 133.998 44.7396 134.099 45.7805C134.327 47.7879 135.91 49.2908 136.361 51.2239C136.488 52.4507 136.042 53.6456 135.899 54.8564C135.649 56.2584 136.042 57.6763 135.872 59.0783C135.145 60.8468 133.992 62.4877 133.87 64.4527C133.69 66.8425 133.658 69.28 134.019 71.6539C134.258 73.0559 135.862 73.3267 136.796 74.1446C136.972 74.9783 136.998 75.8387 137.11 76.6884C137.158 78.3347 138.958 79.2534 139.101 80.8838C139.457 83.8046 139.404 86.837 138.48 89.6516C137.896 91.2926 138.034 93.0982 138.804 94.6489C138.363 94.856 137.922 95.0631 137.481 95.2649C136.664 95.4455 135.83 95.334 135.023 95.1747C134.954 94.9091 134.81 94.3834 134.736 94.1178C136.329 92.206 134.831 89.9331 134.619 87.8248C134.343 86.3378 134.407 84.6702 133.435 83.4116C132.187 82.0043 130.02 81.4945 129.271 79.6411C128.894 78.8392 128.602 77.9948 128.299 77.1663C127.954 77.2035 127.274 77.2831 126.935 77.3256C126.765 76.1201 126.589 74.9146 126.409 73.7144C127.041 73.7516 127.667 73.7888 128.299 73.8259C128.453 74.118 128.751 74.7075 128.905 74.9996C129.096 74.2242 129.707 73.4064 129.388 72.5992C128.825 71.93 128.129 71.3937 127.482 70.8201C127.742 70.4962 128.007 70.1722 128.268 69.8483C126.621 67.9258 127.035 65.3024 127.646 63.056C128.618 61.8983 129.988 61.0008 130.429 59.4713C131.98 55.3131 132.176 50.5335 130.657 46.3381C130.068 44.421 130.137 42.3817 129.654 40.438C129.324 38.8501 127.694 37.9261 127.391 36.317C126.86 33.8104 125.665 31.5215 124.125 29.4875C123.222 28.5422 123.467 27.2146 123.276 26.0356C122.527 25.3665 121.666 24.8301 120.907 24.1716Z" fill="#E8EBFF"/>
<path d="M16.5692 33.736C18.4385 30.9745 20.2176 28.0802 22.9897 26.1153C22.9844 26.8375 22.9472 27.5651 22.8782 28.2873C22.3418 28.8078 21.7045 29.2007 21.0885 29.6203C20.7327 33.1572 18.481 36.1046 18.1092 39.6149C17.8225 41.4789 16.6701 43.0615 16.2611 44.8883C16.3886 46.1045 16.8453 47.2675 16.9409 48.4889C16.7603 49.8538 15.592 50.9531 15.7088 52.3763C15.8363 53.9961 15.8363 55.7698 16.84 57.1346C17.5941 58.1224 17.6525 59.4182 18.2526 60.4697C19.8511 62.6311 20.414 65.3608 22.1666 67.4373C21.7098 68.2232 21.3169 69.057 21.1522 69.9598C19.9361 70.6661 19.1501 71.7814 18.7146 73.1037C16.2877 73.9906 14.4715 75.9077 12.3684 77.3363C11.1098 79.588 11.5081 82.3176 10.7381 84.7127C10.0211 85.4243 8.96434 85.6261 8.06153 86.0191C9.6441 86.1785 11.2214 86.3856 12.8092 86.4812C11.7577 86.513 10.7062 86.5927 9.65472 86.6617C7.86504 86.4812 4.97606 86.7361 4.48217 84.4472C3.81834 80.2837 4.06794 76.0405 4.02014 71.8398C3.86082 67.9365 4.55652 64.0756 4.81674 60.1936C5.5974 56.8426 6.548 53.5181 7.71103 50.2839C10.0955 44.5007 12.5596 38.6112 16.5692 33.736Z" fill="#E8EBFF"/>
<path d="M129.648 34.1927C130.11 33.9166 130.578 33.6404 131.045 33.3696C133.371 36.933 135.968 40.3796 137.434 44.4157C140.147 50.0503 142.277 56.0566 142.983 62.2966C143.297 64.2509 143.929 66.1521 144.04 68.1436C144.449 76.2848 143.217 84.4047 141.438 92.3282C141.135 93.693 140.482 94.9463 139.967 96.2421C139.138 95.9128 138.315 95.5836 137.481 95.2649C137.922 95.0631 138.363 94.856 138.804 94.6489C138.034 93.0982 137.896 91.2926 138.48 89.6516C139.404 86.837 139.457 83.8046 139.101 80.8838C138.958 79.2534 137.158 78.3347 137.11 76.6884C136.998 75.8387 136.972 74.9783 136.796 74.1446C135.862 73.3267 134.258 73.0559 134.019 71.6539C133.658 69.28 133.69 66.8425 133.87 64.4527C133.992 62.4877 135.145 60.8468 135.872 59.0783C136.042 57.6763 135.649 56.2584 135.899 54.8564C136.042 53.6456 136.488 52.4507 136.361 51.2239C135.91 49.2908 134.327 47.7879 134.099 45.7805C133.998 44.7396 134.035 43.6881 133.987 42.6419C133.716 42.4773 133.456 42.318 133.19 42.1587C133.021 42.5941 132.851 43.0243 132.675 43.4545C131.741 41.7604 132.139 39.7689 131.597 37.9686C131.231 36.5825 130.445 35.3664 129.648 34.1927Z" fill="#E8EBFF"/>
<path d="M140.859 50.1565L141.342 50.2149L141.597 50.7247L141.358 51.1549C141.231 50.9053 140.981 50.4061 140.859 50.1565Z" fill="#E8EBFF"/>
<path d="M141.826 53.3322L142.309 53.38L142.59 53.8845L142.367 54.3147C142.229 54.0704 141.958 53.5765 141.826 53.3322Z" fill="#E8EBFF"/>
<path d="M142.479 55.4299L142.946 55.499L143.169 56.0088L142.914 56.4283C142.803 56.1787 142.59 55.6795 142.479 55.4299Z" fill="#E8EBFF"/>
<path d="M144.024 62.9763C144.975 62.8223 145.023 64.4952 144.369 64.8988C144.051 64.3093 143.875 63.6402 144.024 62.9763Z" fill="#E8EBFF"/>
<path d="M99.2556 70.8361C99.9035 69.7049 100.727 68.6852 101.752 67.8674C102.766 68.5472 103.839 69.142 104.933 69.6996C105.315 71.2556 105.681 72.8329 106.398 74.2827C104.726 75.0792 103.971 76.7362 103.456 78.409C101.04 78.1435 98.6449 78.6427 96.2498 78.9029C95.8302 79.4605 95.4107 80.0181 94.9859 80.5757C92.0066 80.0765 88.9795 80.5386 86.0374 81.0749C84.5345 81.6007 83.0104 82.1052 81.3906 81.9671C81.6615 81.606 81.9323 81.2502 82.2085 80.8944C81.1676 80.751 80.1267 80.6023 79.0965 80.4217C78.4804 79.7898 78.0768 78.6533 77.0253 78.7436C74.9542 78.7542 73.1645 79.9703 71.258 80.6235C70.6207 79.3596 70.1056 78.032 69.3833 76.8105C68.215 75.605 66.4997 75.2014 64.9967 74.58C65.8996 74.1871 66.7971 73.7888 67.6945 73.3905C65.8464 72.9072 64.0249 72.3124 62.2087 71.7176C62.745 71.2609 63.2867 70.8095 63.8231 70.3581C66.659 70.5599 69.4311 71.1972 72.2192 71.7176C71.9006 72.0947 71.5819 72.4717 71.2633 72.8541C73.1486 73.9268 74.7152 71.0219 76.4996 72.3921C79.3142 73.9375 82.7714 73.656 85.4427 71.9513C86.1702 72.4558 86.8287 73.1302 87.6944 73.3958C88.8255 73.5338 89.8558 72.9391 90.902 72.6151C90.4984 72.0681 90.0895 71.5317 89.6752 71.006C91.0666 71.1972 92.4633 71.3937 93.86 71.5317C94.7947 71.4415 95.5116 70.7245 96.3029 70.2784C97.2854 70.459 98.2678 70.6502 99.2556 70.8361Z" fill="#E8EBFF"/>
<path d="M144.704 67.963C145.554 69.3491 145.097 71.0963 145.017 72.6257C144.523 71.1122 144.529 69.5243 144.704 67.963Z" fill="#E8EBFF"/>
<path d="M31.9912 68.8499C33.7543 70.2306 35.9211 70.9104 38.1622 70.7192C38.1887 71.1494 38.2418 72.0203 38.2684 72.4505C39.612 72.2752 40.9555 72.1 42.3044 71.93C42.8621 72.7691 43.2604 73.7888 44.0835 74.4154C46.2715 74.7712 48.5232 74.5482 50.6952 75.0155C52.23 75.3288 53.2921 76.5822 54.6251 77.2938C56.1227 77.8195 57.8168 77.7133 59.2135 78.5471C60.6155 79.3331 61.9803 80.1934 63.3876 80.9687C64.3276 81.9087 64.8799 83.1142 65.3048 84.3569C64.8109 84.7393 64.3117 85.1216 63.8178 85.504C64.5082 85.6155 65.1932 85.727 65.8783 85.8386C65.1083 86.0722 64.3382 86.3165 63.5629 86.5396C61.2262 86.4387 58.863 86.3909 56.5741 86.9644C51.9539 86.8423 47.3336 86.5874 42.724 86.3165C41.7734 86.0935 40.8175 85.828 39.8297 85.8333C33.6375 85.8917 27.44 85.8014 21.2478 85.8864C18.0402 85.8811 14.822 86.0138 11.625 85.6368C12.4587 85.2332 13.2872 84.8295 14.1156 84.4153C14.1741 83.4753 13.866 82.3654 14.567 81.5954C15.3371 81.0643 16.2611 80.8094 17.0737 80.3474C17.2224 79.7154 17.2914 79.0675 17.3817 78.4249C19.0492 77.5487 20.9823 76.7627 21.6089 74.8031C22.3259 73.879 23.1915 73.0984 24.0359 72.2965C24.6625 73.417 25.2998 74.5376 26.1017 75.5413C28.7464 76.2423 29.2828 72.9444 30.244 71.2503C30.7698 71.1547 31.2955 71.0644 31.816 70.9741C31.8744 70.2678 31.9328 69.5562 31.9912 68.8499Z" fill="#E8EBFF"/>
<path d="M38.1568 69.2907C39.8244 69.3756 41.4972 69.4659 43.1329 69.8483C45.0394 68.3294 46.7919 70.3528 48.5179 71.1069C49.6597 71.3299 50.8227 70.8998 51.9804 70.9794C52.7504 71.3459 53.4355 71.8716 54.2215 72.2168C57.9071 72.4452 61.4705 73.5339 64.9967 74.58C66.4997 75.2014 68.215 75.605 69.3833 76.8105C70.1056 78.032 70.6207 79.3596 71.258 80.6235C71.0987 80.6554 70.78 80.7191 70.626 80.7563C70.0843 80.4961 69.5586 80.2146 69.0275 79.9332C68.1778 80.1934 67.3281 80.4589 66.4784 80.7085C65.4747 80.3633 63.77 79.2481 63.3876 80.9687C61.9803 80.1934 60.6155 79.3331 59.2135 78.5471C57.8168 77.7133 56.1227 77.8195 54.6251 77.2938C53.2921 76.5822 52.23 75.3288 50.6952 75.0155C48.5232 74.5482 46.2715 74.7712 44.0835 74.4154C43.2604 73.7888 42.8621 72.7691 42.3044 71.93C40.9555 72.1 39.612 72.2752 38.2684 72.4505C38.2418 72.0203 38.1887 71.1494 38.1622 70.7192C38.1622 70.3634 38.1568 69.6465 38.1568 69.2907Z" fill="#E8EBFF"/>
<path d="M18.7146 73.1037C19.1501 71.7814 19.9361 70.6661 21.1522 69.9598C21.0513 71.5902 21.1628 73.2258 21.6089 74.8031C20.9823 76.7627 19.0492 77.5487 17.3817 78.4249C17.2914 79.0675 17.2224 79.7154 17.0737 80.3474C16.2611 80.8094 15.3371 81.0643 14.567 81.5954C13.866 82.3654 14.1741 83.4753 14.1156 84.4153C13.2872 84.8295 12.4587 85.2332 11.625 85.6368C14.822 86.0138 18.0402 85.8811 21.2478 85.8864C27.44 85.8014 33.6375 85.8917 39.8297 85.8333C40.8175 85.828 41.7734 86.0935 42.724 86.3165C38.0347 86.5608 33.3614 85.9501 28.6721 86.0404C23.3774 85.897 18.1039 86.5343 12.8092 86.4812C11.2214 86.3856 9.6441 86.1785 8.06153 86.0191C8.96434 85.6261 10.0211 85.4243 10.7381 84.7127C11.5081 82.3176 11.1098 79.588 12.3684 77.3363C14.4715 75.9077 16.2877 73.9906 18.7146 73.1037Z" fill="#E8EBFF"/>
<path d="M109.441 73.3958C109.919 71.7973 111.008 70.5918 112.654 70.1616C112.686 70.7617 112.723 71.3618 112.766 71.9619C114.869 72.4292 114.603 74.665 114.89 76.3325C115.097 76.3963 115.511 76.529 115.719 76.5928C116.271 76.768 116.839 76.9114 117.349 77.1876C117.837 78.2656 117.965 79.4499 118.188 80.597C119.808 80.4802 120.657 81.999 121.831 82.8168C123.536 83.6453 125.867 82.6947 127.248 84.256C128.437 85.5465 129.797 86.8051 130.339 88.5311C131.024 90.581 131.927 92.5778 132.261 94.7286L131.47 94.633C126.388 93.4859 121.242 92.6627 116.122 91.6856C113.042 91.0164 109.845 91.2023 106.797 90.3845C103.998 89.5879 101.04 90.0818 98.22 89.402C95.2939 88.6426 92.1978 89.1683 89.3035 88.2496C86.5048 87.4318 83.568 87.8194 80.695 87.7769C77.5086 87.8035 74.37 87.0282 71.1783 87.1344C68.6239 87.1981 66.0695 87.0335 63.5629 86.5396C64.3382 86.3165 65.1083 86.0722 65.8783 85.8386C65.1932 85.727 64.5082 85.6155 63.8178 85.504C64.3117 85.1216 64.8109 84.7393 65.3048 84.3569C64.8799 83.1142 64.3276 81.9087 63.3876 80.9687C63.77 79.2481 65.4747 80.3633 66.4784 80.7085C67.3281 80.4589 68.1778 80.1934 69.0275 79.9332C69.5586 80.2146 70.0843 80.4961 70.626 80.7563C70.78 80.7191 71.0987 80.6554 71.258 80.6235C73.1645 79.9703 74.9542 78.7542 77.0253 78.7436C78.0768 78.6533 78.4804 79.7898 79.0965 80.4217C80.1267 80.6023 81.1676 80.751 82.2085 80.8944C81.9323 81.2502 81.6615 81.606 81.3906 81.9671C83.0104 82.1052 84.5345 81.6007 86.0374 81.0749C88.9795 80.5386 92.0066 80.0765 94.9859 80.5757C95.4107 80.0181 95.8302 79.4605 96.2498 78.9029C98.6449 78.6427 101.04 78.1435 103.456 78.409C103.971 76.7362 104.726 75.0792 106.398 74.2827C107.875 73.9428 107.758 75.8918 108.385 76.7574C109.16 76.3325 109.808 75.7271 110.45 75.127C110.116 74.5482 109.776 73.9746 109.441 73.3958Z" fill="#E8EBFF"/>
<path d="M115.719 76.5928C115.448 75.1164 115.304 73.6082 115.57 72.1212C116.207 72.6629 116.85 73.1993 117.498 73.7356C117.859 73.4276 118.22 73.1249 118.586 72.8222C118.767 73.4436 118.953 74.0702 119.144 74.6969C119.558 74.6969 119.978 74.6969 120.403 74.6969C121.735 75.7962 123.026 78.0266 125.023 77.1079C125.4 77.1557 125.777 77.2141 126.159 77.2619C126.35 77.2778 126.738 77.3097 126.935 77.3256C127.274 77.2831 127.954 77.2035 128.299 77.1663C128.602 77.9948 128.894 78.8392 129.271 79.6411C130.02 81.4945 132.187 82.0043 133.435 83.4116C134.407 84.6702 134.343 86.3378 134.619 87.8248C134.831 89.9331 136.329 92.206 134.736 94.1178C134.81 94.3834 134.954 94.9091 135.023 95.1747C134.109 94.9941 133.19 94.8348 132.261 94.7286C131.927 92.5778 131.024 90.581 130.339 88.5311C129.797 86.8051 128.437 85.5465 127.248 84.256C125.867 82.6947 123.536 83.6453 121.831 82.8168C120.657 81.999 119.808 80.4802 118.188 80.597C117.965 79.4499 117.837 78.2656 117.349 77.1876C116.839 76.9114 116.271 76.768 115.719 76.5928Z" fill="#E8EBFF"/>
<path d="M143.976 84.7658C144.157 83.3373 144.343 81.9087 144.55 80.4855C145.591 81.8609 144.932 83.6028 144.81 85.1376L143.976 84.7658Z" fill="#E8EBFF"/>
<path d="M56.5741 86.9644C58.863 86.3909 61.2262 86.4387 63.5629 86.5396C66.0695 87.0335 68.6239 87.1981 71.1783 87.1344C74.37 87.0282 77.5086 87.8035 80.695 87.7769C83.568 87.8194 86.5048 87.4318 89.3035 88.2496C92.1978 89.1683 95.2939 88.6426 98.22 89.402C101.04 90.0818 103.998 89.5879 106.797 90.3845C109.845 91.2023 113.042 91.0164 116.122 91.6856C121.242 92.6627 126.388 93.4859 131.47 94.633L132.043 95.4083C126.26 94.5161 120.503 93.454 114.71 92.6202C99.5318 90.6447 84.3062 89.0515 69.0434 87.9203C64.8905 87.5433 60.7111 87.5327 56.5741 86.9644Z" fill="#E8EBFF"/>
<path d="M142.967 89.3223C143.079 89.0727 143.291 88.5789 143.403 88.3293L143.663 88.7541L143.435 89.2586L142.967 89.3223Z" fill="#E8EBFF"/>
<path d="M4.86453 89.2533C9.97866 89.2374 15.0609 88.6001 20.1751 88.6479C47.169 88.085 74.1151 90.3473 100.928 93.2841C108.4 93.9107 115.798 95.1481 123.207 96.2793C128.581 97.2299 134.008 98.1008 139.239 99.7046C139.478 99.848 139.951 100.129 140.19 100.273C109.032 100.289 77.875 100.294 46.7176 100.283C33.8074 100.358 20.8867 100.161 7.97656 100.384C7.01534 96.6563 5.23628 93.1194 4.86453 89.2533ZM11.1311 90.1986C9.67596 90.4269 7.4455 89.7313 6.74449 91.4785C6.93568 93.5071 7.54109 95.5039 8.37486 97.3626C8.76253 98.0743 9.08648 99.1045 10.1008 98.9983C18.0614 99.2745 26.038 99.0726 34.0092 99.1311C62.8566 99.1258 91.7039 99.1682 120.551 99.1098C123.414 99.1311 126.319 99.4072 129.138 98.754C126.897 97.8618 124.47 97.7609 122.123 97.3361C119.277 96.9325 116.478 96.2368 113.605 96.0775C108.624 95.7004 103.727 94.6861 98.7776 94.0647C92.0278 93.9691 85.3895 92.5246 78.6451 92.2485C75.9844 91.6325 73.2495 92.0308 70.5676 91.6006C65.2941 90.9633 59.9941 90.7615 54.7048 90.2889C52.0017 90.1349 49.2879 90.4004 46.5954 90.0765C42.0655 89.5082 37.4877 89.7525 32.9312 89.7206C25.6663 89.8162 18.3695 89.3701 11.1311 90.1986Z" fill="#E8EBFF"/>
<path d="M11.1311 90.1986C18.3695 89.3701 25.6663 89.8162 32.9312 89.7206C37.4877 89.7525 42.0655 89.5082 46.5954 90.0765C49.2879 90.4004 52.0017 90.1349 54.7048 90.2889C59.9941 90.7615 65.2941 90.9633 70.5676 91.6006C73.2495 92.0308 75.9844 91.6325 78.6451 92.2485C85.3895 92.5246 92.0278 93.9691 98.7776 94.0647C103.727 94.6861 108.624 95.7004 113.605 96.0775C116.478 96.2368 119.277 96.9325 122.123 97.3361C124.47 97.7609 126.897 97.8618 129.138 98.754C126.319 99.4072 123.414 99.1311 120.551 99.1098C91.7039 99.1682 62.8566 99.1258 34.0092 99.1311C26.038 99.0726 18.0614 99.2745 10.1008 98.9983C9.08648 99.1045 8.76253 98.0743 8.37486 97.3626C7.54109 95.5039 6.93568 93.5071 6.74449 91.4785C7.4455 89.7313 9.67596 90.4269 11.1311 90.1986Z" fill="#E8EBFF"/>
</svg>
