<svg width="340" height="340" viewBox="0 0 340 340" fill="none" xmlns="http://www.w3.org/2000/svg">
<g clip-path="url(#clip0_26_211)">
<rect width="340" height="340" rx="80.4734" fill="#000627"/>
<g opacity="0.3" filter="url(#filter0_f_26_211)">
<ellipse cx="60.5625" cy="78.8375" rx="100.938" ry="100.088" fill="#6822FF"/>
<circle cx="332.811" cy="329.794" r="65.2375" fill="#000627"/>
<ellipse cx="365.26" cy="378.622" rx="187.213" ry="162.35" fill="#455FE5"/>
</g>
<g opacity="0.2">
<path d="M243.216 61.4898L389.7 98.2553V276.293L243.216 239.817V61.4898ZM269.85 86.3861V121.994L296.483 128.652V234.896L334.696 244.449V138.495L363.356 145.732V109.546L269.85 86.3861Z" fill="url(#paint0_linear_26_211)"/>
<path d="M269.85 86.3861V121.994L296.483 128.652V234.896L334.696 244.449V138.495L363.356 145.732V109.546L269.85 86.3861Z" fill="url(#paint1_linear_26_211)"/>
</g>
<g opacity="0.2">
<path d="M-50.2959 61.361L96.1873 98.1265V276.164L-50.2959 239.688V61.361ZM-23.6626 86.2573V121.865L2.97074 128.523V234.767L41.1837 244.32V138.366L69.8435 145.603V109.417L-23.6626 86.2573Z" fill="url(#paint2_linear_26_211)"/>
<path d="M-23.6626 86.2573V121.865L2.97074 128.523V234.767L41.1837 244.32V138.366L69.8435 145.603V109.417L-23.6626 86.2573Z" fill="url(#paint3_linear_26_211)"/>
</g>
<path d="M95.8661 277.633V98.3779L97.9064 97.795L243.642 61.361V240.908L241.602 241.199L95.8661 277.633ZM211.289 89.9252H210.998C198.756 89.3423 187.097 90.7996 176.021 94.2973C155.035 101.001 140.17 112.952 132.3 129.565C129.094 136.852 127.345 144.139 127.345 151.426C127.345 163.376 131.717 172.703 141.044 178.241C143.376 179.407 147.165 181.447 152.703 183.779C158.241 185.819 162.322 187.86 164.653 189.9C168.151 191.649 169.9 194.855 169.9 198.644C169.9 201.85 168.734 204.474 165.528 207.388C160.864 211.76 151.537 214.092 141.627 212.635C136.381 211.76 131.717 210.595 128.802 208.263L126.179 206.514V248.486H126.471C138.712 249.069 150.08 248.194 160.281 245.571C176.895 241.491 190.303 232.746 200.213 219.922C208.666 208.554 213.329 196.895 213.329 184.945C213.329 177.367 211.289 171.246 207.208 166.291C204.294 162.793 199.63 159.296 193.509 155.798L177.478 147.928C173.689 146.179 171.94 143.265 171.94 140.058C171.94 137.144 173.106 134.52 175.729 132.48C183.016 126.359 193.218 125.485 208.666 129.274L211.289 129.857V89.9252Z" fill="url(#paint4_linear_26_211)"/>
<path d="M211.289 89.9252H210.998C198.756 89.3423 187.097 90.7996 176.021 94.2973C155.035 101.001 140.17 112.952 132.3 129.565C129.094 136.852 127.345 144.139 127.345 151.426C127.345 163.376 131.717 172.703 141.044 178.241C143.376 179.407 147.165 181.447 152.703 183.779C158.241 185.819 162.322 187.86 164.653 189.9C168.151 191.649 169.9 194.855 169.9 198.644C169.9 201.85 168.734 204.474 165.528 207.388C160.864 211.76 151.537 214.092 141.627 212.635C136.381 211.76 131.717 210.595 128.802 208.263L126.179 206.514V248.486H126.471C138.712 249.069 150.08 248.194 160.281 245.571C176.895 241.491 190.303 232.746 200.213 219.922C208.666 208.554 213.329 196.895 213.329 184.945C213.329 177.367 211.289 171.246 207.208 166.291C204.294 162.793 199.63 159.296 193.509 155.798L177.478 147.928C173.689 146.179 171.94 143.265 171.94 140.058C171.94 137.144 173.106 134.52 175.729 132.48C183.016 126.359 193.218 125.485 208.666 129.274L211.289 129.857V89.9252Z" fill="#F2F4FF"/>
</g>
<defs>
<filter id="filter0_f_26_211" x="-252.875" y="-301.75" width="1379.97" height="1072.28" filterUnits="userSpaceOnUse" color-interpolation-filters="sRGB">
<feFlood flood-opacity="0" result="BackgroundImageFix"/>
<feBlend mode="normal" in="SourceGraphic" in2="BackgroundImageFix" result="shape"/>
<feGaussianBlur stdDeviation="106.25" result="effect1_foregroundBlur_26_211"/>
</filter>
<linearGradient id="paint0_linear_26_211" x1="316.892" y1="67.3025" x2="316.892" y2="270.503" gradientUnits="userSpaceOnUse">
<stop stop-color="#8C9FFF" stop-opacity="0.1"/>
<stop offset="1" stop-color="#2F6BF9"/>
</linearGradient>
<linearGradient id="paint1_linear_26_211" x1="316.892" y1="67.3025" x2="316.892" y2="270.503" gradientUnits="userSpaceOnUse">
<stop stop-color="#8C9FFF" stop-opacity="0.1"/>
<stop offset="1" stop-color="#2F6BF9"/>
</linearGradient>
<linearGradient id="paint2_linear_26_211" x1="23.3793" y1="67.1737" x2="23.3793" y2="270.374" gradientUnits="userSpaceOnUse">
<stop stop-color="#8C9FFF" stop-opacity="0.1"/>
<stop offset="1" stop-color="#2F6BF9"/>
</linearGradient>
<linearGradient id="paint3_linear_26_211" x1="23.3793" y1="67.1737" x2="23.3793" y2="270.374" gradientUnits="userSpaceOnUse">
<stop stop-color="#8C9FFF" stop-opacity="0.1"/>
<stop offset="1" stop-color="#2F6BF9"/>
</linearGradient>
<linearGradient id="paint4_linear_26_211" x1="686.906" y1="67.7733" x2="686.906" y2="271.804" gradientUnits="userSpaceOnUse">
<stop stop-color="#455FE5"/>
<stop offset="1" stop-color="#455FE5"/>
</linearGradient>
<clipPath id="clip0_26_211">
<rect width="340" height="340" rx="80.4734" fill="white"/>
</clipPath>
</defs>
</svg>
