<svg width="411" height="67" viewBox="0 0 411 67" fill="none" xmlns="http://www.w3.org/2000/svg">
<path d="M0 66.78V11.43L0.63 11.25L45.63 0V55.44L45 55.53L0 66.78ZM28.62 54L40.23 6.93L27.18 10.26L22.5 38.16L17.55 12.69L5.22 15.75L15.66 57.24L28.62 54Z" fill="url(#paint0_linear_241_5)"/>
<path d="M91.2452 11.43V66.78L45.6152 55.44V0L91.2452 11.43ZM62.3552 9.9V54L74.3252 56.97V12.78L62.3552 9.9Z" fill="url(#paint1_linear_241_5)"/>
<path d="M91.2305 66.78V11.43L91.8605 11.25L136.86 0V55.44L136.23 55.53L91.2305 66.78ZM126.87 8.82H126.78C123 8.64 119.4 9.09 115.98 10.17C109.5 12.24 104.91 15.93 102.48 21.06C101.49 23.31 100.95 25.56 100.95 27.81C100.95 31.5 102.3 34.38 105.18 36.09C105.9 36.45 107.07 37.08 108.78 37.8C110.49 38.43 111.75 39.06 112.47 39.69C113.55 40.23 114.09 41.22 114.09 42.39C114.09 43.38 113.73 44.19 112.74 45.09C111.3 46.44 108.42 47.16 105.36 46.71C103.74 46.44 102.3 46.08 101.4 45.36L100.59 44.82V57.78H100.68C104.46 57.96 107.97 57.69 111.12 56.88C116.25 55.62 120.39 52.92 123.45 48.96C126.06 45.45 127.5 41.85 127.5 38.16C127.5 35.82 126.87 33.93 125.61 32.4C124.71 31.32 123.27 30.24 121.38 29.16L116.43 26.73C115.26 26.19 114.72 25.29 114.72 24.3C114.72 23.4 115.08 22.59 115.89 21.96C118.14 20.07 121.29 19.8 126.06 20.97L126.87 21.15V8.82Z" fill="url(#paint2_linear_241_5)"/>
<path d="M182.476 11.43V66.78L136.846 55.44V0L182.476 11.43ZM153.586 9.9V54L165.556 56.97V12.78L153.586 9.9Z" fill="url(#paint3_linear_241_5)"/>
<path d="M228.001 0V55.44L227.461 55.53L182.461 66.78V11.43L183.091 11.25L228.001 0ZM222.691 28.53C222.691 21.42 221.251 16.2 218.371 12.96C216.391 10.8 213.601 9.63 210.361 9.63C208.831 9.63 207.121 9.9 205.411 10.35C199.651 11.79 195.241 14.94 192.181 19.71C189.211 24.48 187.681 30.51 187.771 37.71C187.951 52.65 193.801 58.77 205.051 55.98C210.901 54.54 215.311 51.39 218.371 46.53C221.161 42.03 222.691 35.91 222.691 28.53ZM205.411 44.46L205.231 44.55C205.051 44.55 204.601 44.73 203.881 44.73C200.641 44.73 198.931 41.31 198.841 34.56C198.841 30.96 199.291 27.99 200.461 25.74C201.451 23.58 202.981 22.32 205.051 21.78C206.761 21.33 208.111 21.6 209.101 22.5C210.901 23.85 211.711 26.82 211.711 31.77C211.621 42.93 207.031 44.19 205.411 44.46Z" fill="url(#paint4_linear_241_5)"/>
<path d="M227.988 0L273.528 11.43V66.78L227.988 55.35V0ZM233.388 51.12L245.538 54.09V31.95L255.078 56.52L268.218 59.85V15.66L255.528 12.6V31.59L247.968 10.62L233.388 6.93V51.12Z" fill="url(#paint5_linear_241_5)"/>
<path d="M273.516 66.78V11.43L274.146 11.25L319.146 0V55.44L318.516 55.53L273.516 66.78ZM292.416 56.7V48.96L299.706 47.16V54.9L312.306 51.75V22.59C312.306 18.36 310.776 14.94 307.806 12.78C305.736 11.25 303.306 10.53 300.516 10.53C299.166 10.53 297.636 10.8 296.106 11.07C291.516 12.24 287.736 14.67 284.766 18.36C281.796 21.96 280.266 26.01 280.266 30.15V59.85L292.416 56.7ZM292.416 38.52V27.9C292.416 26.73 292.776 25.74 293.406 24.57C294.576 22.68 297.186 22.23 298.536 23.49C299.346 24.3 299.706 25.2 299.706 26.46V36.72L292.416 38.52Z" fill="url(#paint6_linear_241_5)"/>
<path d="M319.131 0L364.761 11.43V66.78L319.131 55.44V0ZM350.721 41.85L351.351 41.49C353.061 40.5 354.411 39.24 355.491 37.53C356.661 35.55 357.381 33.21 357.381 30.6C357.381 25.92 355.761 21.69 352.881 18.18C349.911 14.76 346.041 12.42 341.181 11.16L325.071 7.11V51.3L337.041 54.18V41.67L339.291 42.21L344.871 56.16L358.281 59.58L350.721 41.85ZM337.041 20.88L339.561 21.6C341.361 22.05 342.711 22.77 343.611 24.03C344.421 25.11 344.781 26.46 344.781 27.81C344.691 31.23 342.801 32.04 341.271 32.04C340.641 32.04 339.921 31.86 339.201 31.68L337.041 31.14V20.88Z" fill="url(#paint7_linear_241_5)"/>
<path d="M364.746 66.78V11.43L365.376 11.25L410.376 0V55.44L409.746 55.53L364.746 66.78ZM383.646 56.7V48.96L390.936 47.16V54.9L403.536 51.75V22.59C403.536 18.36 402.006 14.94 399.036 12.78C396.966 11.25 394.536 10.53 391.746 10.53C390.396 10.53 388.866 10.8 387.336 11.07C382.746 12.24 378.966 14.67 375.996 18.36C373.026 21.96 371.496 26.01 371.496 30.15V59.85L383.646 56.7ZM383.646 38.52V27.9C383.646 26.73 384.006 25.74 384.636 24.57C385.806 22.68 388.416 22.23 389.766 23.49C390.576 24.3 390.936 25.2 390.936 26.46V36.72L383.646 38.52Z" fill="url(#paint8_linear_241_5)"/>
<path fill-rule="evenodd" clip-rule="evenodd" d="M292.416 56.7V48.96L299.706 47.16V54.9L312.306 51.75V22.59C312.306 18.36 310.776 14.94 307.806 12.78C305.736 11.25 303.306 10.53 300.516 10.53C299.166 10.53 297.636 10.8 296.106 11.07C291.516 12.24 287.736 14.67 284.766 18.36C281.796 21.96 280.266 26.01 280.266 30.15V59.85L292.416 56.7ZM292.416 27.9V38.52L299.706 36.72V26.46C299.706 25.2 299.346 24.3 298.536 23.49C297.186 22.23 294.576 22.68 293.406 24.57C292.776 25.74 292.416 26.73 292.416 27.9Z" fill="#EEF0FF"/>
<path d="M233.388 51.12L245.538 54.09V31.95L255.078 56.52L268.218 59.85V15.66L255.528 12.6V31.59L247.968 10.62L233.388 6.93V51.12Z" fill="#EEF0FF"/>
<path fill-rule="evenodd" clip-rule="evenodd" d="M222.691 28.53C222.691 21.42 221.251 16.2 218.371 12.96C216.391 10.8 213.601 9.63 210.361 9.63C208.831 9.63 207.121 9.9 205.411 10.35C199.651 11.79 195.241 14.94 192.181 19.71C189.211 24.48 187.681 30.51 187.771 37.71C187.951 52.65 193.801 58.77 205.051 55.98C210.901 54.54 215.311 51.39 218.371 46.53C221.161 42.03 222.691 35.91 222.691 28.53ZM205.231 44.55L205.411 44.46C207.031 44.19 211.621 42.93 211.711 31.77C211.711 26.82 210.901 23.85 209.101 22.5C208.111 21.6 206.761 21.33 205.051 21.78C202.981 22.32 201.451 23.58 200.461 25.74C199.291 27.99 198.841 30.96 198.841 34.56C198.931 41.31 200.641 44.73 203.881 44.73C204.601 44.73 205.051 44.55 205.231 44.55Z" fill="#EEF0FF"/>
<path d="M153.586 9.9V54L165.556 56.97V12.78L153.586 9.9Z" fill="#EEF0FF"/>
<path d="M126.87 8.82H126.78C123 8.64 119.4 9.09 115.98 10.17C109.5 12.24 104.91 15.93 102.48 21.06C101.49 23.31 100.95 25.56 100.95 27.81C100.95 31.5 102.3 34.38 105.18 36.09C105.9 36.45 107.07 37.08 108.78 37.8C110.49 38.43 111.75 39.06 112.47 39.69C113.55 40.23 114.09 41.22 114.09 42.39C114.09 43.38 113.73 44.19 112.74 45.09C111.3 46.44 108.42 47.16 105.36 46.71C103.74 46.44 102.3 46.08 101.4 45.36L100.59 44.82V57.78H100.68C104.46 57.96 107.97 57.69 111.12 56.88C116.25 55.62 120.39 52.92 123.45 48.96C126.06 45.45 127.5 41.85 127.5 38.16C127.5 35.82 126.87 33.93 125.61 32.4C124.71 31.32 123.27 30.24 121.38 29.16L116.43 26.73C115.26 26.19 114.72 25.29 114.72 24.3C114.72 23.4 115.08 22.59 115.89 21.96C118.14 20.07 121.29 19.8 126.06 20.97L126.87 21.15V8.82Z" fill="#EEF0FF"/>
<path d="M62.3552 9.9V54L74.3252 56.97V12.78L62.3552 9.9Z" fill="#EEF0FF"/>
<path d="M28.62 54L40.23 6.93L27.18 10.26L22.5 38.16L17.55 12.69L5.22 15.75L15.66 57.24L28.62 54Z" fill="#EEF0FF"/>
<path fill-rule="evenodd" clip-rule="evenodd" d="M350.721 41.85L351.351 41.49C353.061 40.5 354.411 39.24 355.491 37.53C356.661 35.55 357.381 33.21 357.381 30.6C357.381 25.92 355.761 21.69 352.881 18.18C349.911 14.76 346.041 12.42 341.181 11.16L325.071 7.11V51.3L337.041 54.18V41.67L339.291 42.21L344.871 56.16L358.281 59.58L350.721 41.85ZM339.561 21.6L337.041 20.88V31.14L339.201 31.68C339.921 31.86 340.641 32.04 341.271 32.04C342.801 32.04 344.691 31.23 344.781 27.81C344.781 26.46 344.421 25.11 343.611 24.03C342.711 22.77 341.361 22.05 339.561 21.6Z" fill="#EEF0FF"/>
<path fill-rule="evenodd" clip-rule="evenodd" d="M383.646 56.7V48.96L390.936 47.16V54.9L403.536 51.75V22.59C403.536 18.36 402.006 14.94 399.036 12.78C396.966 11.25 394.536 10.53 391.746 10.53C390.396 10.53 388.866 10.8 387.336 11.07C382.746 12.24 378.966 14.67 375.996 18.36C373.026 21.96 371.496 26.01 371.496 30.15V59.85L383.646 56.7ZM383.646 27.9V38.52L390.936 36.72V26.46C390.936 25.2 390.576 24.3 389.766 23.49C388.416 22.23 385.806 22.68 384.636 24.57C384.006 25.74 383.646 26.73 383.646 27.9Z" fill="#EEF0FF"/>
<defs>
<linearGradient id="paint0_linear_241_5" x1="205.5" y1="1.97998" x2="205.5" y2="64.98" gradientUnits="userSpaceOnUse">
<stop stop-color="#455FE5"/>
<stop offset="1" stop-color="#2F6BF9"/>
</linearGradient>
<linearGradient id="paint1_linear_241_5" x1="205.188" y1="0" x2="205.188" y2="66.78" gradientUnits="userSpaceOnUse">
<stop stop-color="#8C9FFF"/>
<stop offset="1" stop-color="#2F6BF9"/>
</linearGradient>
<linearGradient id="paint2_linear_241_5" x1="205.5" y1="1.97998" x2="205.5" y2="64.98" gradientUnits="userSpaceOnUse">
<stop stop-color="#455FE5"/>
<stop offset="1" stop-color="#2F6BF9"/>
</linearGradient>
<linearGradient id="paint3_linear_241_5" x1="205.188" y1="0" x2="205.188" y2="66.78" gradientUnits="userSpaceOnUse">
<stop stop-color="#8C9FFF"/>
<stop offset="1" stop-color="#2F6BF9"/>
</linearGradient>
<linearGradient id="paint4_linear_241_5" x1="205.5" y1="1.97998" x2="205.5" y2="64.98" gradientUnits="userSpaceOnUse">
<stop stop-color="#455FE5"/>
<stop offset="1" stop-color="#2F6BF9"/>
</linearGradient>
<linearGradient id="paint5_linear_241_5" x1="205.188" y1="0" x2="205.188" y2="66.78" gradientUnits="userSpaceOnUse">
<stop stop-color="#8C9FFF"/>
<stop offset="1" stop-color="#2F6BF9"/>
</linearGradient>
<linearGradient id="paint6_linear_241_5" x1="205.5" y1="1.97998" x2="205.5" y2="64.98" gradientUnits="userSpaceOnUse">
<stop stop-color="#455FE5"/>
<stop offset="1" stop-color="#2F6BF9"/>
</linearGradient>
<linearGradient id="paint7_linear_241_5" x1="205.188" y1="0" x2="205.188" y2="66.78" gradientUnits="userSpaceOnUse">
<stop stop-color="#8C9FFF"/>
<stop offset="1" stop-color="#2F6BF9"/>
</linearGradient>
<linearGradient id="paint8_linear_241_5" x1="205.5" y1="1.97998" x2="205.5" y2="64.98" gradientUnits="userSpaceOnUse">
<stop stop-color="#455FE5"/>
<stop offset="1" stop-color="#2F6BF9"/>
</linearGradient>
</defs>
</svg>
