<svg width="365" height="67" viewBox="0 0 365 67" fill="none" xmlns="http://www.w3.org/2000/svg">
<path d="M0 66.8V11.45L0.63 11.27L45.63 0.0200195V55.46L45 55.55L0 66.8ZM35.64 8.84002H35.55C31.77 8.66002 28.17 9.11002 24.75 10.19C18.27 12.26 13.68 15.95 11.25 21.08C10.26 23.33 9.72 25.58 9.72 27.83C9.72 31.52 11.07 34.4 13.95 36.11C14.67 36.47 15.84 37.1 17.55 37.82C19.26 38.45 20.52 39.08 21.24 39.71C22.32 40.25 22.86 41.24 22.86 42.41C22.86 43.4 22.5 44.21 21.51 45.11C20.07 46.46 17.19 47.18 14.13 46.73C12.51 46.46 11.07 46.1 10.17 45.38L9.36 44.84V57.8H9.45C13.23 57.98 16.74 57.71 19.89 56.9C25.02 55.64 29.16 52.94 32.22 48.98C34.83 45.47 36.27 41.87 36.27 38.18C36.27 35.84 35.64 33.95 34.38 32.42C33.48 31.34 32.04 30.26 30.15 29.18L25.2 26.75C24.03 26.21 23.49 25.31 23.49 24.32C23.49 23.42 23.85 22.61 24.66 21.98C26.91 20.09 30.06 19.82 34.83 20.99L35.64 21.17V8.84002Z" fill="url(#paint0_linear_249_21)"/>
<path d="M45.6152 0.0200195L91.1552 11.45V66.8L45.6152 55.46V0.0200195ZM53.8952 7.76002V18.83L62.1752 20.9V53.93L74.0552 56.9V23.96L82.9652 26.21V14.96L53.8952 7.76002Z" fill="url(#paint1_linear_249_21)"/>
<path d="M136.683 0.0200195V55.46L136.143 55.55L91.1426 66.8V11.45L91.7726 11.27L136.683 0.0200195ZM131.373 28.55C131.373 21.44 129.933 16.22 127.053 12.98C125.073 10.82 122.283 9.65002 119.043 9.65002C117.513 9.65002 115.803 9.92002 114.093 10.37C108.333 11.81 103.923 14.96 100.863 19.73C97.8926 24.5 96.3626 30.53 96.4526 37.73C96.6326 52.67 102.483 58.79 113.733 56C119.583 54.56 123.993 51.41 127.053 46.55C129.843 42.05 131.373 35.93 131.373 28.55ZM114.093 44.48L113.913 44.57C113.733 44.57 113.283 44.75 112.563 44.75C109.323 44.75 107.613 41.33 107.523 34.58C107.523 30.98 107.973 28.01 109.143 25.76C110.133 23.6 111.663 22.34 113.733 21.8C115.443 21.35 116.793 21.62 117.783 22.52C119.583 23.87 120.393 26.84 120.393 31.79C120.303 42.95 115.713 44.21 114.093 44.48Z" fill="url(#paint2_linear_249_21)"/>
<path d="M136.67 0.0200195L182.3 11.45V66.8L136.67 55.46V0.0200195ZM168.26 41.87L168.89 41.51C170.6 40.52 171.95 39.26 173.03 37.55C174.2 35.57 174.92 33.23 174.92 30.62C174.92 25.94 173.3 21.71 170.42 18.2C167.45 14.78 163.58 12.44 158.72 11.18L142.61 7.13002V51.32L154.58 54.2V41.69L156.83 42.23L162.41 56.18L175.82 59.6L168.26 41.87ZM154.58 20.9L157.1 21.62C158.9 22.07 160.25 22.79 161.15 24.05C161.96 25.13 162.32 26.48 162.32 27.83C162.23 31.25 160.34 32.06 158.81 32.06C158.18 32.06 157.46 31.88 156.74 31.7L154.58 31.16V20.9Z" fill="url(#paint3_linear_249_21)"/>
<path d="M227.915 55.46L227.285 55.55L182.285 66.8V11.45L182.915 11.27L227.915 0.0200195V55.46ZM210.995 9.92002L199.025 12.8V56.99L210.995 54.02V9.92002Z" fill="url(#paint4_linear_249_21)"/>
<path d="M227.9 0.0200195L273.44 11.45V66.8L227.9 55.46V0.0200195ZM246.8 54.83V47.09L254.09 48.89V56.63L266.69 59.87V31.07C266.69 26.57 265.16 22.43 262.01 18.65C258.86 14.78 254.81 12.17 250.04 10.82C245.63 9.83002 241.85 10.28 238.97 12.44C236.09 14.51 234.65 17.66 234.65 21.71V51.77L246.8 54.83ZM246.8 36.56V26.39C246.8 25.22 247.16 24.23 247.88 23.42C249.14 22.07 251.75 22.61 253.01 24.59C253.73 25.58 254.09 26.57 254.09 27.83V38.36L246.8 36.56Z" fill="url(#paint5_linear_249_21)"/>
<path d="M273.428 66.8V11.45L274.058 11.27L319.058 0.0200195V55.46L318.428 55.55L273.428 66.8ZM298.988 54.74L312.668 51.41L305.108 37.1L305.468 36.74C307.178 34.94 308.618 32.78 309.788 30.44C310.958 27.92 311.678 25.22 311.678 22.61C311.678 17.93 310.148 14.6 307.358 12.62C304.478 10.64 300.608 10.28 295.838 11.45L279.368 15.59V59.78L291.338 56.72V44.12L293.408 43.58L298.988 54.74ZM291.338 23.42L293.498 22.79C295.388 22.43 296.738 22.61 297.818 23.33C298.628 24.23 299.078 25.31 299.078 26.75C298.988 30.17 297.368 32.15 293.858 32.96L291.338 33.59V23.42Z" fill="url(#paint6_linear_249_21)"/>
<path d="M319.043 0.0200195L364.583 11.45V66.8L319.043 55.46V0.0200195ZM337.943 54.83V47.09L345.233 48.89V56.63L357.833 59.87V31.07C357.833 26.57 356.303 22.43 353.153 18.65C350.003 14.78 345.953 12.17 341.183 10.82C336.773 9.83002 332.993 10.28 330.113 12.44C327.233 14.51 325.793 17.66 325.793 21.71V51.77L337.943 54.83ZM337.943 36.56V26.39C337.943 25.22 338.303 24.23 339.023 23.42C340.283 22.07 342.893 22.61 344.153 24.59C344.873 25.58 345.233 26.57 345.233 27.83V38.36L337.943 36.56Z" fill="url(#paint7_linear_249_21)"/>
<path d="M35.64 8.84002H35.55C31.77 8.66002 28.17 9.11002 24.75 10.19C18.27 12.26 13.68 15.95 11.25 21.08C10.26 23.33 9.72 25.58 9.72 27.83C9.72 31.52 11.07 34.4 13.95 36.11C14.67 36.47 15.84 37.1 17.55 37.82C19.26 38.45 20.52 39.08 21.24 39.71C22.32 40.25 22.86 41.24 22.86 42.41C22.86 43.4 22.5 44.21 21.51 45.11C20.07 46.46 17.19 47.18 14.13 46.73C12.51 46.46 11.07 46.1 10.17 45.38L9.36 44.84V57.8H9.45C13.23 57.98 16.74 57.71 19.89 56.9C25.02 55.64 29.16 52.94 32.22 48.98C34.83 45.47 36.27 41.87 36.27 38.18C36.27 35.84 35.64 33.95 34.38 32.42C33.48 31.34 32.04 30.26 30.15 29.18L25.2 26.75C24.03 26.21 23.49 25.31 23.49 24.32C23.49 23.42 23.85 22.61 24.66 21.98C26.91 20.09 30.06 19.82 34.83 20.99L35.64 21.17V8.84002Z" fill="#EEF0FF"/>
<path d="M53.8952 7.76002V18.83L62.1752 20.9V53.93L74.0552 56.9V23.96L82.9652 26.21V14.96L53.8952 7.76002Z" fill="#EEF0FF"/>
<path fill-rule="evenodd" clip-rule="evenodd" d="M131.373 28.55C131.373 21.44 129.933 16.22 127.053 12.98C125.073 10.82 122.283 9.65002 119.043 9.65002C117.513 9.65002 115.803 9.92002 114.093 10.37C108.333 11.81 103.923 14.96 100.863 19.73C97.8926 24.5 96.3626 30.53 96.4526 37.73C96.6326 52.67 102.483 58.79 113.733 56C119.583 54.56 123.993 51.41 127.053 46.55C129.843 42.05 131.373 35.93 131.373 28.55ZM113.913 44.57L114.093 44.48C115.713 44.21 120.303 42.95 120.393 31.79C120.393 26.84 119.583 23.87 117.783 22.52C116.793 21.62 115.443 21.35 113.733 21.8C111.663 22.34 110.133 23.6 109.143 25.76C107.973 28.01 107.523 30.98 107.523 34.58C107.613 41.33 109.323 44.75 112.563 44.75C113.283 44.75 113.733 44.57 113.913 44.57Z" fill="#EEF0FF"/>
<path fill-rule="evenodd" clip-rule="evenodd" d="M168.26 41.87L168.89 41.51C170.6 40.52 171.95 39.26 173.03 37.55C174.2 35.57 174.92 33.23 174.92 30.62C174.92 25.94 173.3 21.71 170.42 18.2C167.45 14.78 163.58 12.44 158.72 11.18L142.61 7.13002V51.32L154.58 54.2V41.69L156.83 42.23L162.41 56.18L175.82 59.6L168.26 41.87ZM157.1 21.62L154.58 20.9V31.16L156.74 31.7C157.46 31.88 158.18 32.06 158.81 32.06C160.34 32.06 162.23 31.25 162.32 27.83C162.32 26.48 161.96 25.13 161.15 24.05C160.25 22.79 158.9 22.07 157.1 21.62Z" fill="#EEF0FF"/>
<path d="M210.995 9.92002L199.025 12.8V56.99L210.995 54.02V9.92002Z" fill="#EEF0FF"/>
<path fill-rule="evenodd" clip-rule="evenodd" d="M246.8 54.83V47.09L254.09 48.89V56.63L266.69 59.87V31.07C266.69 26.57 265.16 22.43 262.01 18.65C258.86 14.78 254.81 12.17 250.04 10.82C245.63 9.83002 241.85 10.28 238.97 12.44C236.09 14.51 234.65 17.66 234.65 21.71V51.77L246.8 54.83ZM246.8 26.39V36.56L254.09 38.36V27.83C254.09 26.57 253.73 25.58 253.01 24.59C251.75 22.61 249.14 22.07 247.88 23.42C247.16 24.23 246.8 25.22 246.8 26.39Z" fill="#EEF0FF"/>
<path fill-rule="evenodd" clip-rule="evenodd" d="M298.988 54.74L312.668 51.41L305.108 37.1L305.468 36.74C307.178 34.94 308.618 32.78 309.788 30.44C310.958 27.92 311.678 25.22 311.678 22.61C311.678 17.93 310.148 14.6 307.358 12.62C304.478 10.64 300.608 10.28 295.838 11.45L279.368 15.59V59.78L291.338 56.72V44.12L293.408 43.58L298.988 54.74ZM293.498 22.79L291.338 23.42V33.59L293.858 32.96C297.368 32.15 298.988 30.17 299.078 26.75C299.078 25.31 298.628 24.23 297.818 23.33C296.738 22.61 295.388 22.43 293.498 22.79Z" fill="#EEF0FF"/>
<path fill-rule="evenodd" clip-rule="evenodd" d="M337.943 54.83V47.09L345.233 48.89V56.63L357.833 59.87V31.07C357.833 26.57 356.303 22.43 353.153 18.65C350.003 14.78 345.953 12.17 341.183 10.82C336.773 9.83002 332.993 10.28 330.113 12.44C327.233 14.51 325.793 17.66 325.793 21.71V51.77L337.943 54.83ZM337.943 26.39V36.56L345.233 38.36V27.83C345.233 26.57 344.873 25.58 344.153 24.59C342.893 22.61 340.283 22.07 339.023 23.42C338.303 24.23 337.943 25.22 337.943 26.39Z" fill="#EEF0FF"/>
<defs>
<linearGradient id="paint0_linear_249_21" x1="182.5" y1="2" x2="182.5" y2="65" gradientUnits="userSpaceOnUse">
<stop stop-color="#455FE5"/>
<stop offset="1" stop-color="#2F6BF9"/>
</linearGradient>
<linearGradient id="paint1_linear_249_21" x1="182.291" y1="0.0200195" x2="182.291" y2="66.8" gradientUnits="userSpaceOnUse">
<stop stop-color="#8C9FFF"/>
<stop offset="1" stop-color="#2F6BF9"/>
</linearGradient>
<linearGradient id="paint2_linear_249_21" x1="182.5" y1="2" x2="182.5" y2="65" gradientUnits="userSpaceOnUse">
<stop stop-color="#455FE5"/>
<stop offset="1" stop-color="#2F6BF9"/>
</linearGradient>
<linearGradient id="paint3_linear_249_21" x1="182.291" y1="0.0200195" x2="182.291" y2="66.8" gradientUnits="userSpaceOnUse">
<stop stop-color="#8C9FFF"/>
<stop offset="1" stop-color="#2F6BF9"/>
</linearGradient>
<linearGradient id="paint4_linear_249_21" x1="182.5" y1="2" x2="182.5" y2="65" gradientUnits="userSpaceOnUse">
<stop stop-color="#455FE5"/>
<stop offset="1" stop-color="#2F6BF9"/>
</linearGradient>
<linearGradient id="paint5_linear_249_21" x1="182.291" y1="0.0200195" x2="182.291" y2="66.8" gradientUnits="userSpaceOnUse">
<stop stop-color="#8C9FFF"/>
<stop offset="1" stop-color="#2F6BF9"/>
</linearGradient>
<linearGradient id="paint6_linear_249_21" x1="182.5" y1="2" x2="182.5" y2="65" gradientUnits="userSpaceOnUse">
<stop stop-color="#455FE5"/>
<stop offset="1" stop-color="#2F6BF9"/>
</linearGradient>
<linearGradient id="paint7_linear_249_21" x1="182.291" y1="0.0200195" x2="182.291" y2="66.8" gradientUnits="userSpaceOnUse">
<stop stop-color="#8C9FFF"/>
<stop offset="1" stop-color="#2F6BF9"/>
</linearGradient>
</defs>
</svg>
