<svg width="520" height="73" viewBox="0 0 520 73" fill="none" xmlns="http://www.w3.org/2000/svg">
<path d="M64.4562 27.4693C67.3593 25.008 70.4204 23.4562 73.9159 22.8631C80.6206 21.7165 89.1027 23.8417 93.1019 30.2666C94.8792 33.1232 95.9654 36.1874 95.9654 39.6272C95.9457 49.7588 95.9951 59.8806 96.0543 70.0122C96.0543 70.9809 95.8074 71.2082 94.8595 71.1885C91.3047 71.1292 87.7401 71.139 84.1853 71.1885C83.3459 71.1885 83.03 71.06 83.03 70.1012C83.03 61.1161 82.951 52.141 82.9016 43.156C82.8819 39.0638 79.2974 35.1199 75.1897 34.6652C70.8548 34.1907 67.0729 36.0095 65.335 39.4394C64.7623 40.5761 64.476 41.782 64.4562 43.067C64.3081 52.0817 64.239 61.1063 64.3081 70.1209C64.3081 70.9611 64.1304 71.1983 63.2515 71.1885C59.5783 71.1292 55.905 71.1489 52.2317 71.1885C51.501 71.1885 51.2542 71.0204 51.2542 70.2395C51.2739 47.1197 51.2739 23.9998 51.2542 0.879933C51.2542 0.148479 51.4714 0.000211869 52.1626 0.000211869C55.9149 0.0298654 59.6573 0.0496344 63.4095 0.000211869C64.2489 -0.00967264 64.2982 0.326401 64.2982 0.988663C64.2587 9.43004 64.2785 17.8813 64.4661 26.3227C64.4661 26.6192 64.4661 26.9157 64.4661 27.489L64.4562 27.4693Z" fill="#E8EBFF"/>
<path d="M23.7046 22.3392C32.5521 22.3788 38.5162 24.9685 43.5324 29.8515C44.1249 30.4248 44.0854 30.7114 43.5324 31.2551C41.1823 33.5582 38.8519 35.881 36.4524 38.1248C35.7909 38.7376 35.4058 38.7772 34.6849 38.194C30.7253 34.9914 26.2423 33.9436 21.3841 35.5944C17.4739 36.9189 14.9164 39.815 13.85 43.7392C12.586 48.3553 13.6228 52.6056 16.832 56.2036C19.5376 59.248 23.0628 60.108 27.0026 59.7521C30.202 59.4556 32.9372 58.1508 35.2873 56.0158C35.7711 55.5808 36.0278 55.6204 36.4821 56.0454C38.9309 58.2991 41.3008 60.6219 43.5423 63.0931C44.0162 63.617 44.0261 63.9728 43.6509 64.5461C42.7918 65.8706 41.5279 66.7306 40.264 67.5905C29.9255 74.6382 15.9236 73.5311 6.99712 64.7636C2.55364 60.4045 0.331899 54.8889 0.0356667 48.6815C-0.201319 43.7194 0.726874 38.9749 3.29422 34.6356C6.05905 29.9701 10.1471 26.807 15.0053 24.583C18.3428 23.0509 21.8778 22.3689 23.7145 22.3293L23.7046 22.3392Z" fill="#E8EBFF"/>
<path d="M257.58 47.3964C257.422 35.8711 265.153 25.868 276.736 23.1695C284.952 21.2519 292.367 22.9817 299.102 27.9338C301.866 29.97 301.896 30.2863 299.595 32.6685C297.788 34.5367 295.942 36.3653 294.164 38.2631C293.483 38.9946 292.989 38.9649 292.259 38.3323C289.543 35.96 286.413 34.7245 282.74 34.8233C275.65 35.0309 270.13 41.4163 270.969 48.4541C271.335 51.5084 272.362 54.2266 274.564 56.4111C278.8 60.6021 286.087 60.9876 291.212 57.3106C291.459 57.1327 291.686 56.9251 291.952 56.7669C292.486 56.4506 292.802 55.561 293.414 55.7093C293.967 55.8477 294.382 56.5198 294.846 56.9745C296.949 59.0305 299.032 61.1161 301.155 63.1523C301.649 63.6169 301.698 63.9727 301.313 64.5065C300.958 65.0007 300.593 65.495 300.109 65.8706C294.915 69.8738 289.128 72.2461 282.473 72.1571C270.634 71.999 260.897 64.0419 258.429 54.3057C257.827 51.9235 257.501 49.5117 257.58 47.3865V47.3964Z" fill="#E8EBFF"/>
<path d="M328.053 53.3172C328.053 58.8921 328.034 64.4769 328.073 70.0517C328.073 70.971 327.816 71.1884 326.928 71.1786C323.294 71.1291 319.66 71.1192 316.026 71.1786C315.118 71.1884 314.98 70.9018 314.98 70.0814C315.009 58.9218 314.98 47.7621 315.029 36.6124C315.029 35.3966 314.673 35.1989 313.577 35.2286C310.674 35.3077 307.761 35.2286 304.858 35.2681C304.108 35.278 303.891 35.0704 303.9 34.3093C303.94 31.0277 303.95 27.7361 303.9 24.4545C303.891 23.6637 304.157 23.5253 304.868 23.5352C307.89 23.5747 310.911 23.5154 313.933 23.5747C314.782 23.5945 315.019 23.3968 315.019 22.5171C314.98 16.705 315.019 10.9028 314.98 5.09071C314.98 4.22087 315.157 3.92434 316.095 3.93422C319.729 3.99353 323.363 3.98365 326.997 3.93422C327.876 3.92434 328.073 4.19122 328.063 5.0314C328.024 10.8435 328.063 16.6457 328.024 22.4578C328.024 23.3869 328.29 23.5945 329.169 23.5747C332.191 23.5253 335.212 23.5747 338.234 23.5352C338.935 23.5352 339.132 23.7032 339.122 24.4149C339.083 27.7361 339.083 31.0672 339.122 34.3884C339.122 35.11 338.905 35.278 338.214 35.2681C335.153 35.2286 332.092 35.278 329.031 35.2286C328.231 35.2187 328.024 35.4263 328.024 36.2269C328.063 41.9204 328.043 47.6139 328.043 53.3074L328.053 53.3172Z" fill="#E8EBFF"/>
<path d="M176.738 27.5582C178.525 25.4825 180.421 24.1975 182.673 23.4957C188.903 21.5386 194.64 22.1218 199.587 26.7971C200.14 27.321 200.229 27.6373 199.686 28.2403C197.395 30.8004 195.144 33.4 192.922 36.0194C192.468 36.563 192.103 36.6125 191.5 36.306C189.703 35.3868 187.926 34.5268 185.793 34.5466C181.211 34.5861 177.459 37.9172 176.985 42.474C176.768 44.609 176.807 46.7441 176.797 48.8791C176.768 55.9466 176.758 63.014 176.778 70.0814C176.778 70.9216 176.6 71.1885 175.721 71.1687C172.048 71.1193 168.374 71.1193 164.711 71.1687C163.901 71.1687 163.704 70.9611 163.704 70.1605C163.724 54.9581 163.724 39.7557 163.704 24.5534C163.704 23.7725 163.872 23.5155 164.701 23.5353C168.414 23.5847 172.117 23.5748 175.83 23.5353C176.6 23.5353 176.827 23.7527 176.768 24.5039C176.699 25.4034 176.748 26.3029 176.748 27.5681L176.738 27.5582Z" fill="#E8EBFF"/>
<path d="M410.949 27.4297C413.072 25.2156 415.432 23.7428 418.157 23.0607C423.973 21.6176 429.276 22.527 433.719 26.8564C434.154 27.2814 434.381 27.5681 433.857 28.1414C431.468 30.7707 429.128 33.4395 426.797 36.1281C426.294 36.7014 425.958 36.731 425.306 36.2961C422.067 34.0918 418.601 34.0227 415.244 35.8216C412.973 37.0374 411.719 39.2417 411.186 41.7721C411.047 42.4344 410.968 43.1263 410.959 43.8083C410.889 52.5561 410.83 61.3039 410.82 70.0517C410.82 70.9512 410.593 71.1884 409.695 71.1785C406.061 71.1291 402.427 71.1291 398.793 71.1785C397.964 71.1884 397.806 70.9314 397.806 70.1604C397.826 54.958 397.826 39.7557 397.806 24.5533C397.806 23.7625 397.974 23.5253 398.803 23.5352C402.477 23.5846 406.15 23.5846 409.813 23.5352C410.643 23.5253 410.84 23.7724 410.801 24.5533C410.761 25.4231 410.88 26.3029 410.949 27.4297Z" fill="#E8EBFF"/>
<path d="M505.476 47.3569C505.476 39.7952 505.486 32.2336 505.457 24.6719C505.457 23.812 505.625 23.5154 506.563 23.5253C510.305 23.5846 514.057 23.5649 517.81 23.5253C518.56 23.5253 518.767 23.723 518.767 24.4742C518.748 39.7162 518.748 54.9581 518.767 70.1901C518.767 70.9216 518.6 71.1687 517.829 71.1588C514.047 71.1192 510.256 71.1192 506.474 71.1588C505.664 71.1588 505.467 70.9512 505.467 70.1506C505.496 62.5494 505.486 54.9482 505.486 47.347L505.476 47.3569Z" fill="#E8EBFF"/>
<path d="M437.481 64.3781C437.462 68.7471 433.897 72.1473 429.335 72.1671C424.852 72.1869 421.238 68.4011 421.357 63.6566C421.475 59.2382 424.398 55.6106 428.486 55.6007C434.134 55.5908 437.402 58.0125 437.481 64.3682V64.3781Z" fill="#E8EBFF"/>
<path d="M511.974 1.36435C517.681 1.53238 519.567 4.94254 519.459 9.65745C519.37 13.3246 515.894 16.4382 512.161 16.2405C507.106 15.9835 504.687 12.4844 504.716 8.61958C504.746 4.4582 508.202 1.18642 511.974 1.35446V1.36435Z" fill="#E8EBFF"/>
<path d="M221.498 22.5175C226.89 22.1518 231.748 23.7031 235.925 27.2021C236.089 27.3374 236.272 27.4452 236.557 27.6347C236.793 26.4396 236.715 25.3433 236.705 24.2568C236.705 23.6934 236.883 23.5449 237.426 23.5449C241.287 23.5646 245.158 23.5745 249.019 23.5449C249.917 23.5449 249.759 24.0689 249.759 24.5927V52.9121C249.759 58.645 249.739 64.3783 249.779 70.1113C249.779 70.971 249.571 71.1983 248.703 71.1884C245.029 71.139 241.356 71.139 237.683 71.1884C236.844 71.1983 236.646 70.9312 236.705 70.1503C236.775 69.1718 236.725 68.1933 236.725 67.1357C235.915 67.3038 235.54 67.8279 235.066 68.164C228.697 72.6809 221.923 73.4322 214.705 70.4472C205.917 66.8097 201.533 59.9992 200.447 50.8066C199.41 42.0687 201.908 34.4967 208.129 28.2695C211.773 24.6126 216.404 22.8635 221.498 22.5175ZM236.488 42.8593C233.999 34.4576 223.434 32.303 217.588 37.7197C213.984 41.0607 212.592 47.1891 214.488 52.1806C216.107 56.4407 219.07 59.2379 223.631 59.8212C231.975 60.8888 237.337 54.5227 237.258 47.0302H237.248C237.278 45.9528 236.942 44.411 236.488 42.8593Z" fill="#E8EBFF"/>
<path d="M108.101 31.5809C112.9 24.8795 119.832 22.0229 128.028 22.5468C131.948 22.7939 135.483 24.3361 138.514 26.9159C138.801 27.1531 139.087 27.3807 139.61 27.7958C139.61 26.5108 139.64 25.4627 139.6 24.4149C139.571 23.7924 139.719 23.5449 140.41 23.5448C144.231 23.5745 148.063 23.5843 151.884 23.5448C152.763 23.535 152.644 24.0199 152.644 24.5536V44.8466C152.644 53.2581 152.624 61.6597 152.664 70.0712C152.664 70.9706 152.437 71.208 151.539 71.1981C147.944 71.1487 144.35 71.1388 140.746 71.1981C139.758 71.2179 139.511 70.8918 139.59 69.9725C139.669 69.0449 139.61 68.1074 139.61 66.8944C137.85 68.3888 136.207 69.531 134.367 70.3583C127.642 73.373 121.135 72.5628 114.836 69.1034C108.97 65.881 105.662 60.7403 104.131 54.3944C102.167 46.2497 103.204 38.4308 108.101 31.5809ZM139.818 43.4227C137.942 35.5745 128.797 33.2514 123.752 35.7225C118.933 38.0751 116.899 41.97 116.671 47.6239C116.76 48.2664 116.859 49.443 117.096 50.5995C118.104 55.6008 121.51 58.7734 126.931 59.8212C130.901 60.5823 136.174 58.2994 138.396 54.662C140.539 51.1629 140.766 47.3864 139.818 43.4227Z" fill="#E8EBFF"/>
<path d="M464.38 22.7344C470.413 21.7758 475.884 23.2092 480.693 27.0147C480.811 27.1035 480.939 27.1828 481.176 27.3408C481.433 26.3031 481.463 25.3443 481.423 24.3955C481.403 23.7926 481.512 23.5253 482.203 23.5352C485.995 23.5747 489.777 23.5846 493.569 23.5352C494.496 23.5254 494.417 23.9999 494.417 24.5928V51.9932C494.417 58.0325 494.398 64.0721 494.438 70.1016C494.438 70.9414 494.25 71.1984 493.371 71.1787C489.698 71.1293 486.024 71.1293 482.351 71.1787C481.591 71.1787 481.374 70.9708 481.423 70.2295C481.482 69.3202 481.422 68.4007 481.215 67.4717C480.732 67.4226 480.485 67.8176 480.169 68.0449C475.874 71.0696 471.124 72.7109 465.861 72.1475C457.724 71.2875 451.543 67.0961 448.028 59.8311C443.12 49.6995 444.118 39.726 450.743 30.5928C454.032 26.0658 458.87 23.6141 464.38 22.7344ZM481.443 42.9092C479.013 34.626 469.02 32.5594 463.402 37.0371C459.136 40.4374 457.882 44.9851 458.86 50.125C459.521 53.6141 461.21 56.6483 464.479 58.4571C468.576 60.7204 472.812 60.5925 476.653 58.1709C480.425 55.7987 482.281 52.0621 482.193 47.2188H482.183C482.163 46.8234 482.203 46.1214 482.084 45.4492C481.936 44.5894 481.689 43.7493 481.443 42.9092Z" fill="#E8EBFF"/>
<path d="M367.008 22.4377C373.525 22.4872 379.035 24.9193 383.676 29.3771C386.865 32.4313 388.524 36.3553 389.541 40.5461C390.38 43.9957 390.36 47.4951 389.817 51.0041C389.699 51.7948 389.294 51.8448 388.662 51.8547C377.909 51.9832 367.165 52.1313 356.412 52.2697H355.181C356.133 56.3974 360.533 60.1581 364.934 60.7902C370.256 61.5612 374.926 60.3842 378.758 56.4699C379.044 56.1736 379.241 56.0852 379.587 56.4211C381.917 58.6846 384.14 61.0566 386.361 63.4289C386.865 63.9725 386.441 64.2101 386.154 64.5461C382.965 68.2923 378.866 70.4568 374.087 71.465C364.44 73.5011 355.879 71.3462 348.651 64.6447C344.79 61.0567 342.627 56.3816 341.896 51.2121C340.662 42.4645 343.24 34.9027 349.776 28.8732C354.605 24.4153 360.422 22.3784 367.008 22.4377ZM372.093 34.7043C365.832 31.4325 357.824 34.5564 355.326 41.1691C355.05 41.8907 355.296 41.9299 355.869 41.9299C363.008 42.0089 370.158 42.1478 377.386 41.7326L377.395 41.7228C376.497 38.6784 374.927 36.187 372.093 34.7043Z" fill="#E8EBFF"/>
</svg>
