<svg width="601" height="123" viewBox="0 0 601 123" fill="none" xmlns="http://www.w3.org/2000/svg">
<g clip-path="url(#clip0_24_3)">
<path d="M166.28 58.998L147.948 14.114H156.582L167.049 40.902L178.521 12.872L189.935 40.902L200.343 14.114H208.622L190.349 58.998L178.285 30.081L166.28 58.998Z" fill="#E8EBFF"/>
<path d="M248.058 57.284H239.661L235.285 48H216.894L212.518 57.284H204.062L226.06 12.4L248.058 57.284ZM219.791 41.849H232.387L226.059 28.484L219.791 41.849Z" fill="#E8EBFF"/>
<path d="M261.598 57.284H253.614V14.115H265.796C275.317 14.115 282.117 19.024 282.117 27.48C282.117 33.334 278.864 37.356 273.661 39.307L287.084 57.284H277.8L265.441 40.608H261.597L261.598 57.284ZM261.598 34.22H265.797C270.706 34.22 274.017 31.795 274.017 27.479C274.017 23.103 270.706 20.679 265.797 20.679H261.598V34.22Z" fill="#E8EBFF"/>
<path d="M386.521 57.284H378.537V14.115H390.719C400.24 14.115 407.04 19.024 407.04 27.48C407.04 33.334 403.787 37.356 398.584 39.307L412.007 57.284H402.723L390.364 40.608H386.52L386.521 57.284ZM386.521 34.22H390.72C395.629 34.22 398.94 31.795 398.94 27.479C398.94 23.103 395.629 20.679 390.72 20.679H386.521V34.22Z" fill="#E8EBFF"/>
<path d="M324.314 14.115H332.12V58.939L301.724 29.667V57.283H293.918V12.458L324.314 41.73V14.115Z" fill="#E8EBFF"/>
<path d="M342.586 14.115H369.197V20.738H350.392V31.915H367.719V38.597H350.392V50.661H369.316V57.284H342.587L342.586 14.115Z" fill="#E8EBFF"/>
<path d="M433.114 14.115H445.533C455.172 14.115 460.198 18.609 460.198 25.528C460.198 29.963 457.478 33.097 454.167 34.517C459.076 35.818 462.86 39.543 462.86 44.984C462.86 52.612 456.947 57.285 447.603 57.285H433.115L433.114 14.115ZM445.06 32.387C449.554 32.387 452.393 30.376 452.393 26.591C452.393 22.747 449.555 20.737 445.06 20.737H440.92V32.386L445.06 32.387ZM447.129 50.661C451.683 50.661 454.758 48.295 454.758 44.452C454.758 40.667 451.683 38.302 447.129 38.302H440.92V50.661H447.129Z" fill="#E8EBFF"/>
<path d="M479.233 57.284H471.249V14.115H483.431C492.952 14.115 499.752 19.024 499.752 27.48C499.752 33.334 496.499 37.356 491.296 39.307L504.719 57.284H495.435L483.076 40.608H479.232L479.233 57.284ZM479.233 34.22H483.432C488.341 34.22 491.652 31.795 491.652 27.479C491.652 23.103 488.341 20.679 483.432 20.679H479.233V34.22Z" fill="#E8EBFF"/>
<path d="M551.356 35.699C551.356 48 541.539 57.993 529.298 57.993C517.057 57.993 507.241 47.999 507.241 35.699C507.241 23.399 517.058 13.405 529.298 13.405C541.539 13.405 551.356 23.398 551.356 35.699ZM515.223 35.699C515.223 44.215 521.491 50.601 529.297 50.601C537.103 50.601 543.372 44.214 543.372 35.699C543.372 27.184 537.104 20.797 529.297 20.797C521.492 20.797 515.223 27.183 515.223 35.699Z" fill="#E8EBFF"/>
<path d="M570.092 51.193C574.468 51.193 577.543 49.242 577.543 45.694C577.543 42.915 575.71 41.672 572.989 40.313L565.774 36.883C561.102 34.635 557.14 31.857 557.14 25.824C557.14 18.314 563.289 13.405 571.333 13.405C576.242 13.405 580.617 15.475 582.982 17.662V25.941C579.671 22.63 575.353 20.205 571.037 20.205C567.43 20.205 564.709 21.979 564.709 25.172C564.709 27.538 566.424 28.779 568.789 29.962L575.531 33.096C581.799 35.994 585.111 38.95 585.111 44.982C585.111 53.024 578.429 57.992 569.913 57.992C564.414 57.992 559.565 55.923 556.725 53.675V45.515C560.512 48.59 565.184 51.193 570.092 51.193Z" fill="#E8EBFF"/>
<path d="M600.26 52.67C600.26 55.508 598.012 57.696 595.234 57.696H595.115C592.335 57.696 590.148 55.508 590.148 52.67C590.148 49.89 592.336 47.703 595.115 47.703H595.234C598.013 47.703 600.26 49.892 600.26 52.67Z" fill="#E8EBFF"/>
<path d="M425.595 115.055H417.611V71.886H429.793C439.314 71.886 446.114 76.795 446.114 85.251C446.114 91.105 442.861 95.127 437.658 97.078L451.081 115.055H441.797L429.438 98.38H425.594L425.595 115.055ZM425.595 91.992H429.794C434.703 91.992 438.014 89.567 438.014 85.251C438.014 80.875 434.703 78.451 429.794 78.451H425.595V91.992Z" fill="#E8EBFF"/>
<path d="M381.245 71.886H407.856V78.509H389.051V89.686H406.378V96.368H389.051V108.432H407.975V115.055H381.246L381.245 71.886Z" fill="#E8EBFF"/>
<path d="M331.083 93.471C331.083 105.772 321.266 115.765 309.025 115.765C296.784 115.765 286.968 105.771 286.968 93.471C286.968 81.171 296.785 71.177 309.025 71.177C321.266 71.177 331.083 81.171 331.083 93.471ZM294.95 93.471C294.95 101.987 301.219 108.373 309.025 108.373C316.831 108.373 323.1 101.986 323.1 93.471C323.1 84.956 316.832 78.569 309.025 78.569C301.22 78.569 294.95 84.956 294.95 93.471Z" fill="#E8EBFF"/>
<path d="M166.653 71.886C178.954 71.886 188.829 81.17 188.829 93.471C188.829 105.771 178.953 115.056 166.653 115.056H153.347V71.886H166.653ZM161.332 78.51V108.433H166.122C174.815 108.433 180.847 101.691 180.847 93.472C180.847 85.253 174.813 78.51 166.18 78.51H161.332Z" fill="#E8EBFF"/>
<path d="M204.969 71.886V115.055H196.985V71.886H204.969Z" fill="#E8EBFF"/>
<path d="M226.449 108.965C230.825 108.965 233.901 107.014 233.901 103.466C233.901 100.686 232.068 99.444 229.347 98.085L222.132 94.655C217.46 92.408 213.498 89.629 213.498 83.597C213.498 76.086 219.648 71.178 227.69 71.178C232.599 71.178 236.974 73.247 239.339 75.435V83.714C236.027 80.403 231.71 77.978 227.393 77.978C223.786 77.978 221.065 79.752 221.065 82.946C221.065 85.311 222.78 86.553 225.145 87.736L231.887 90.871C238.155 93.769 241.466 96.725 241.466 102.757C241.466 110.799 234.784 115.767 226.269 115.767C220.77 115.767 215.92 113.697 213.081 111.45V103.29C216.868 106.362 221.54 108.965 226.449 108.965Z" fill="#E8EBFF"/>
<path d="M280.718 103.524V112.749C277.525 114.7 273.681 115.765 269.541 115.765C257.24 115.765 247.306 105.771 247.306 93.471C247.306 81.17 257.241 71.177 269.541 71.177C273.68 71.177 277.525 72.241 280.718 74.193V83.418C278.175 80.58 274.272 78.806 269.719 78.806C261.558 78.806 255.29 85.193 255.29 93.472C255.29 101.751 261.558 108.137 269.719 108.137C274.272 108.137 278.175 106.362 280.718 103.524Z" fill="#E8EBFF"/>
<path d="M331.788 71.886H340.599L354.022 100.803L367.328 71.886H375.784L353.786 116.77L331.788 71.886Z" fill="#E8EBFF"/>
<path d="M465.679 115.055V95.659L449.534 71.886H458.582L469.641 88.267L480.818 71.886H489.807L473.722 95.659V115.055H465.679Z" fill="#E8EBFF"/>
<path d="M117.468 30.905V24.721L109.203 20.244V13.777L104.963 11.758C92.915 6.013 79.593 2.177 64.228 0.136L63.224 0L62.22 0.136C46.854 2.177 33.533 6.014 21.486 11.758L17.246 13.777V20.244L8.98 24.721V30.905L0 35.722L0.71 40.855C3.089 58.078 9.369 73.665 19.365 87.192C29.468 100.861 43.106 112.044 59.9 120.437L63.224 122.1L66.548 120.437C83.342 112.044 96.98 100.861 107.083 87.192C117.079 73.665 123.359 58.078 125.738 40.855L126.448 35.722L117.468 30.905ZM118.342 39.835C117.503 45.579 114.801 64.347 101.074 82.767C87.112 101.735 68.753 110.938 63.214 113.769C57.675 110.937 39.316 101.735 25.354 82.767C11.627 64.346 8.926 45.577 8.086 39.835L16.426 35.362V29.157L24.691 24.68V18.479C36.125 13.026 48.722 9.441 63.213 7.516C77.704 9.441 90.301 13.027 101.735 18.479V24.68L110 29.157V35.362L118.342 39.835Z" fill="#E8EBFF"/>
<path d="M50.861 22.439L51.245 72.887L50.889 73.095C45.548 59.597 42.365 42.753 41.361 25.86C38.739 27.039 35.957 28.498 33.105 30.304C34.257 45.63 36.876 59.039 41.583 71.768L38.919 73.311C31.861 63.427 27.25 51.405 24.083 37.146C21.902 39.105 19.738 41.299 17.625 43.758C21.763 60.873 28.276 73.842 37.796 84.399L45.135 80.012C48.73 87.503 53.781 94.895 59.33 100.804V20.944C56.505 21.219 53.711 21.706 50.861 22.439Z" fill="#E8EBFF"/>
<path d="M98.101 48.445C101.092 45.134 101.728 42.725 101.728 39.81C101.728 35.685 98.32 32.014 93.363 28.86C90.369 26.954 85.786 24.647 79.102 22.784C75.256 21.751 71.246 21.123 67.12 20.944V100.806C83.906 92.164 103.861 68.485 103.962 56.437C103.993 52.752 102.049 50.345 98.101 48.445ZM75.374 30.494C79.507 30.494 92.878 34.722 92.878 40.061C92.878 41.985 91.179 44.744 85.89 47.521L75.374 53.161V30.494ZM85.793 74.782C83.431 77.506 79.562 81.659 75.374 84.895V61.981C75.374 61.981 90.546 53.442 91.103 53.078C95.645 54.229 95.414 57.569 95.414 57.915C95.41 62.123 91.109 68.637 85.793 74.782Z" fill="#E8EBFF"/>
</g>
<defs>
<clipPath id="clip0_24_3">
<rect width="600.26" height="122.1" fill="white"/>
</clipPath>
</defs>
</svg>
